/* XPM */
static char *_5d8dee65a824aca98cab89e88edc210IlYERLOGD7Onn47R[] = {
/* columns rows colors chars-per-pixel */
"64 64 92 1 ",
"  c #48443A",
". c #4A453C",
"X c #4B463D",
"o c #4C473E",
"O c #4D473E",
"+ c #4D473F",
"@ c #4D493F",
"# c #4E493F",
"$ c #4E4940",
"% c #4F4B40",
"& c #4F4B41",
"* c #504B41",
"= c #514C42",
"- c #524D43",
"; c #534E43",
": c #534F44",
"> c #544F45",
", c #544F46",
"< c #545046",
"1 c #555146",
"2 c #555047",
"3 c #565047",
"4 c #575149",
"5 c #565249",
"6 c #575349",
"7 c #57524A",
"8 c #585349",
"9 c #58534B",
"0 c #5A534B",
"q c #58544A",
"w c #5B544B",
"e c #5B544C",
"r c #5B554C",
"t c #5C554C",
"y c #5C554D",
"u c #5D554D",
"i c #5E574F",
"p c #5F574F",
"a c #5F584F",
"s c #605850",
"d c #625C52",
"f c #645D53",
"g c #645E54",
"h c #655E54",
"j c #655E55",
"k c #665F55",
"l c #666055",
"z c #666056",
"x c #686157",
"c c #686257",
"v c #696258",
"b c #6A6358",
"n c #6B635A",
"m c #6B645A",
"M c #6B645B",
"N c #6C645B",
"B c #6C655C",
"V c #6D655C",
"C c #6D665C",
"Z c #70685F",
"A c #70695F",
"S c #72695F",
"D c #726A60",
"F c #746B61",
"G c #746C61",
"H c #756C62",
"J c #776E64",
"K c #777064",
"L c #787064",
"P c #787065",
"I c #797065",
"U c #797266",
"Y c #7A7266",
"T c #7B7367",
"R c #7C7468",
"E c #7E7669",
"W c #827A6D",
"Q c #837A6D",
"! c #837B6E",
"~ c #847B6E",
"^ c #847C6E",
"/ c #847C70",
"( c #867E70",
") c #877E70",
"_ c #887F72",
"` c #887F73",
"' c #888073",
"] c #898073",
"[ c #898174",
"{ c #8A8174",
"} c #8C8376",
"| c #8E8578",
/* pixels */
"  @@ggCC{{'^;; @ggnvvvCC`{__p331fzczwwwavgvvvkvkse05XX+@ffnkvkNv",
"  @@ggCC{{^_;;++ffkvvkCC{{__5511zdzzpawwkvvvvvgvep30XX@@gfccnvvv",
"  @@dgNN{{_^;@+XffkjvvCC{{__5w3;bbbms9r0vgvvnvvvee57XX@+gfvnvvcn",
"  @@gdNN{{^_;;X@jgkjkvCC{``~55;>bbmm9r0pgvvvvnvvpi77X+@+gzvcnnkc",
"  XX00dd''^';*++eepecgCC{{//;>;@/EE^e333kkNnJJHJsi77XX++ggnvcckn",
"  XX00dd'''/@;@ 99esvzCC{{/~>*;*^^/^p0<3kknnKJJH9s49XX+@gfvvcnvv",
"XX++33pp^'//#;+X599svCSC/~E!*>>>/'^'qw;3ggMvLLHJse39&$&*ffvgvknc",
"XX++33pp'^^^<;X+30siMvCS//!R>*>*'^''w31;vgvBLLJJep93&&&@ffkgvcnc",
"553>++;*JKLLw33#3ess//!!30*:55as''/'3w11ddzmvvvx:31:fsff>335gxxx",
"503>++*;LKLL33#<9>ss//!^55::5qas''''qw1<llmzCnvx35:1ffff>055xgxB",
"siwp +#*SSKJ5511p0dg{'/'>*XX50ss'^^/w5;<fzccnvcz321:zzkk3::>zzxm",
"ispw+ *@JSJS51110pds{'_^:*  55ss^'//53<<czcmvncc5:33zzgc31::fzxx",
"JLFF@@@@gvvvwrrrggnC{{_^;@+X0>isLRKL<#@@ffnnLLHH33:5kkkf@&$Xllxx",
"JLFF;#@@vgvvrrrrfcCn{{^^&;XX;0isRLKU##@@cfNvLLHH35::kkfc@X$$ffvv",
"EEJJ;#+$ggzvppr9gvCC['!!;;X+00spJKSS###@fcnNLEJJ35::kkgfX@$$flvv",
"EEKK@++$ggzg09rizzCC/'!!;;+X0pspJJJS<##@ffnnRJKL57::kkfg++$$flvv",
"{|^^::++kfkkswesggNNEEJL>>>;dzkvnnhb@#+#kfnnIRLL5331xfff$$@@dgvn",
"|{^^&&++fknkwpewkknNLELL0>3;zdccnbch@#+.ffnnRRSL551:fzll$X@&ggcc",
"{|/^;;++kfkvpwppnknnYLJH05;0dfzccclf+.@@kfnnWILL:2:1xxzz$$Xokfcn",
"|{^^*@+XggkvpppukknNJJHH>000zdczbkfhO#@@fkncIWLL5:5:xxzzX$Xoffnc",
"RRII@*++ggkkckkkkvvvCCvMgvggpppsknff#+#@kfNS''^^:;%%FJGG##++kfnc",
"WWII;@++ffvvkvkcvvvvvvMvvkfgppe9kkkf.+@@fkNN''^^;&%%GSGG##+.fknk",
"JLHS@@@@ccnnfkfcvkvvvvvkvvgc00rpVnkn@@.+ffCC{{'^@;o%JKJK;#++ffvc",
"RLHH@@@@fcnnkkkfvvvvkkvvvccg00rrnVkb@@@@zcCC{'^';&%%JGJG##++ckcn",
"NNlc@+#;SSJG>>#>fxvvxMxxxxxf:5rr)~!W+; @kfVV{{'^***@HJJJ###.flcb",
"NNcz@+*#SJFJ>;##ggvvxxxMxxfx3:r5~~!!;;++fkVV{{^';;@*JJHJ#3##lfbc",
"vcff*@**JGSG##.+ffxxfxkxCBvv::05_{!'>@+ kfVV{{{~;***IJJL####fkcb",
"vbff#*;*FJGG#@++ffxxxfxkCBvm5>>5_~'^@:+@gkVN{{^{;>**LLJL####kfbk",
"vvvkwwwwzcvg*&++zfxz75rr!^!!&*;;))))>@##ggCC{{/'5539^_~/#;++fkcb",
"vvgc0wwwvvgc@@++xffx32rr~~^^;;;;)'^~@3+#ggCC{{'/5003^))^>+++kfbc",
"vvcgpppezzgg@*#*fxfz::73/^^/*;&@QWQQ#;@.zgBm''!!rr9p)'))>#@@ffkn",
"vvzcppepzcgg*#*#zfzz::77/'//***;WW~~;#+@dzBm'^!!rrw0''^^>>##fhkk",
"vvkvvkkkvvck00eexxxf&&%@JYLL##@@ccck@@@@ffmmBmNCzzmm{{/'50&:r00p",
"vvvvkvkkvvgv0eeexfffX%%&PKYL;@@@bcnc@@++zfxxCCNNzzmm{{[/55:&9pp9",
"vvvvvvvvvggg9eeexffx:*::FFSC;;#;kgff++@@zzBvzzzzvzmC__^_r9>:9555",
"vvvvvvkvgvggseesxxff=::1FASN;*;@cffc.+@@zzxBzzdzcvCC_''^rr;:050e",
"vvvvvvgvspeeeeeexxBMFGCC::::fdfccczfOO##FFFH5050ggCnRRRLis77>::&",
"vvvvvvvgssepeeeefxBxHFFF::;&sfcfvNffOO##HJJH5553zgnCRRJRsi79:>:3",
"vkkkvvgvee05eee9fxBxEEJL@&XXfccngksf##;3JPKK53;<ggNnJJJH9s9u22:2",
"kkkvgvvge909eeesxfBBLEKJ&&XXgkkckkff##;#YLLJ0>;;vgnnLJJJss94:223",
"ssepgvgk33;;05eexxNC``//;#@+ffcf**##33pp^'^^;;@@ggvvvMvv9eeekgkv",
"eeppkkvg3>;35w90xfCC[`//@;@+hffc**@*33pp^///;;@@ggvvNCvveeeeggvg",
"03e0kvkv>>>*rpppxxBC{{_~;;++ccfg++++p5ds''/';#.#kgvvkvxgeeeegvvv",
"359pnvkv>>*>r9ppfxBC{{~_@;++fgff.@+.55sd{^'^;##.jkvvkvxfsesevgvv",
" #<@JHSJ;###ffkkvvCC{{_^*;++ffdl@@ @w>ds'''^<#@+gfnkvvkveeeekvvk",
"#@@<SHHS#;##dgvkzzCC{{!{#;+.lzfl@@+ >0sd''^'#<@@jknvvvvkpepekkvv",
"  @@JJJL##++gcvvvvCC''^^;;#@czzz@#@+w0sd_{/^<###fkkvvggkeeesvvNN",
"  @@JJJJ#+++ggvNvgCC/'^^;;#@fczl@#@+00sf{_/'#<XXfjvNgvkgpe9svvnn",
"  ##JIHJo@X@ffbcvkCMRRYJ7333JJSS3><;lfNN{{))#;OOkfckep0e00ppHJJR",
"  ##LLJJ@@##flcbvkNCRRJI5332HJJK11;;dlNN{{^)3#O#gfknppep00ppHHJR",
"  ##LSHI<X##fcbcvvvNIJHH5q75LLKK>531lzNN''^^#<#.ffkvep00eepsLKER",
"  #<SLVVX<##ffcbkkNCJIHHrr97KKKJ3q33cdNN''^^;#+#ffckee00eppsLJER",
"  @@llcc;13>chcnvvvvNvNNzzzbKTKJ5311kkNNRQII####kkkkpwepffvvLLEE",
"  @@clcz:;3>fkkbvvvvvNvCzzmzTLGK3q:1fcNNRRJI#;##ffckwp0pkfvvLLYE",
"  #@fllz120>ffkkkvvvgvvkxmmcKKJGr511cfbNRLSL##.+kfkvw000xjBMJEEE",
"  ##lflc5533fffcvvvvgvvkmzmmKKJJ5535flNbLRSL###+kfnkw000xxCvEYEE",
"  @@kgccgxfd:&;@gkvvvvvvkvvvvCvMzzdzccnnRIJJ@@.#kfkhOOOOfjCC``{|",
"  @@ggkczzff&&%%kkvvvvvvvvvvCvvMzzzzccNNRLSL;##.fkfk==*OxfCB`/|{",
"  @@kfccmmzz&X&XggvvvvvvvvvkggkgzzbmvzmcIIIS#;@@kfkkOO++fzBB{{||",
"  @#fkccmmzzX$X&kgvvvvvvvvvvggkkzmbzcccNIISH##@.gkkkOO+$zfBB{{||",
"  @@lfNmIISJ&@++gkvvvvvvvvgv3555vkvvcvvvnnkk@@++ckgk$XXXfzCC`[||",
"  @@ffNbJIHS@&++kgvvvvvvvvvg0535ggvvckvvnnkc@@++ggkg.$$XzfCC{`||",
"  @@flNNLRLL@@+Xgkvvvvvvvvgg>>>>gvvvvvvkccgg+X@@gkgv$.X$fzCC`[||",
"  @@flNNLRLJ#@X@kgvvvvvvvvkk>>>:vgvvvvvvnckgX@+&vgkg.$$&zfCB{`||"
};
