/* XPM */
static char *_47e6e4e112748ecf22d63d94844c569a3pLQDnjI1xRsWmu[] = {
/* columns rows colors chars-per-pixel */
"64 64 151 2 ",
"   c #000000",
".  c #0E0E0D",
"X  c #110D0D",
"o  c #12110F",
"O  c #1A110F",
"+  c #140F10",
"@  c #151312",
"#  c #191614",
"$  c #1B1917",
"%  c #171718",
"&  c #1A1719",
"*  c #1C1919",
"=  c #221612",
"-  c #231916",
";  c #281B17",
":  c #231D1B",
">  c #2B1D1B",
",  c #26211E",
"<  c #2B211E",
"1  c #32221E",
"2  c #1A1D25",
"3  c #221F20",
"4  c #262222",
"5  c #2C2522",
"6  c #2B2428",
"7  c #2D2828",
"8  c #332523",
"9  c #3C2622",
"0  c #332926",
"q  c #3D2925",
"w  c #35262B",
"e  c #352B2A",
"r  c #3C2D2B",
"t  c #3D312D",
"y  c #352E30",
"u  c #3B2C31",
"i  c #3D3331",
"p  c #412723",
"a  c #442A26",
"s  c #442D2B",
"d  c #492E2A",
"f  c #43312E",
"g  c #4C312C",
"h  c #52342E",
"j  c #59352F",
"k  c #422E31",
"l  c #443432",
"z  c #4B3532",
"x  c #453935",
"c  c #4B3A36",
"v  c #40363A",
"b  c #443939",
"n  c #4C3C39",
"m  c #543631",
"M  c #593731",
"N  c #553A35",
"B  c #5C3A33",
"V  c #523E3B",
"C  c #5C3F3A",
"Z  c #633C35",
"A  c #683D37",
"S  c #6A3F39",
"D  c #683E38",
"F  c #683E38",
"G  c #4F413D",
"H  c #4E413A",
"J  c #57413C",
"K  c #54423D",
"L  c #5B443E",
"P  c #64433C",
"I  c #6C4039",
"U  c #6F413A",
"Y  c #6F423B",
"T  c #6B433D",
"R  c #6D433C",
"E  c #73443D",
"W  c #70453E",
"Q  c #72453E",
"!  c #74443D",
"~  c #76453E",
"^  c #77453E",
"/  c #72443D",
"(  c #4F4040",
")  c #534643",
"_  c #554742",
"`  c #554643",
"'  c #544743",
"]  c #564543",
"[  c #594340",
"{  c #594540",
"}  c #5A4644",
"|  c #5D4744",
" . c #5A4641",
".. c #574947",
"X. c #554A43",
"o. c #5F4841",
"O. c #5D4842",
"+. c #5E4944",
"@. c #5D4A45",
"#. c #5D4944",
"$. c #5B4C49",
"%. c #5F4E50",
"&. c #6D4640",
"*. c #604942",
"=. c #624942",
"-. c #634A43",
";. c #644A43",
":. c #644B44",
">. c #614C47",
",. c #624C46",
"<. c #624B44",
"1. c #6B4942",
"2. c #644F49",
"3. c #664F49",
"4. c #624D4B",
"5. c #694E48",
"6. c #754740",
"7. c #754943",
"8. c #774A43",
"9. c #744B44",
"0. c #794B44",
"q. c #7B4C45",
"w. c #7F4E47",
"e. c #7B4C45",
"r. c #724E48",
"t. c #7F4F48",
"y. c #7C4F48",
"u. c #675049",
"i. c #65524D",
"p. c #6B514D",
"a. c #6A544E",
"s. c #6A544F",
"d. c #71514C",
"f. c #7C524B",
"g. c #7C534C",
"h. c #655551",
"j. c #675753",
"k. c #655351",
"l. c #6C5651",
"z. c #6B5A55",
"x. c #6D5956",
"c. c #715956",
"v. c #755E58",
"b. c #76635D",
"n. c #796561",
"m. c #786560",
"M. c #825049",
"N. c #84514A",
"B. c #84524B",
"V. c #885750",
"C. c #896D68",
/* pixels */
"                                                                                                                                ",
"                                                                                                                                ",
"                                                                                                                                ",
"                                                                                                                                ",
"                                                                                                                                ",
"                                                                                                          ;                     ",
"                                                                                                          1                     ",
"                                                                                                          9 q                   ",
"                                                                                                          Z g                   ",
"                                                                                                          E h                   ",
"                                                                                                          ^ h 1                 ",
"                                                                                                          ^ B 1                 ",
"                                                                                                          ^ B q                 ",
"                                                                                                        S I Z 9 8               ",
"                                                                                                        S E Z a 9               ",
"    -                                                                                                   ^ ! B d 9               ",
"    -                                                                                                   ^ S j h d 9             ",
"  - -                                                                     ,                           Z Z B h g a p             ",
"  - ;                                                     j.            5 @                         Z Z Z h d d a q             ",
"  9 1 -                                                   x.*         G 5 %                       B Z Z M m g d s q >           ",
"  9 a -                                                 ..@ @ @ n j.X.x 7 *                   m B B B M M h z d d s 8           ",
"  9 h p -                                               j.* # * 5 i x K * *                 L z B Z M M M d d s s s 8           ",
"  9 h h <                     2.,.                      % % : * : t t x 7                 L O.2.d m M M h m d g d k q           ",
"  p g h e.t.                a.2.:.=.                      $ 8 5 5 l t c b               t f 0 e } c m z d d d g g d r 5         ",
"  9 d g M N.7.            u.@.H v.=.=.+.                  8 8 r K f c f `         @.4.i 0 # # O t | m z z d g g k k k w         ",
"  9 d g g m R M.q.Q Q 8.M.f.H O ..n.p.;.<.P             l 0 s b f r z z ) 5 : 4 7 l i : X = p a ; n [ m h z k k k d k w         ",
"  1 d d h h h B Z R Q Q L L = 1 8 0 @.c.l.u.P L       i r ; * i ) l q x y . . . @ 3 : ; g Z Z Z h 1 V C m d g k k d l w 6       ",
"  1 d d h h h j B Z B C P t = L P s ; 0 X.b.b.H H x l i { : : % : $.i.e % @ @ @ + = d h Z Z S Z Z g 8 { C z z k k g k u 6       ",
"  1 p d d h h h M M B m L $ s R 8.R N 0 - < f t X.L t H G e : . * : : @ % % # @ 1 h h h h j B B Z M g 1 [ [ z k g k k u w       ",
"  1 p d d g g h m h m g K = L Q M.q.7.P z 1 # , H X.K ..: o . . % + @ # % , :             B j B B M M f q | C z k g s r q       ",
"  8 9 d d g g h g g g N t q P q.q.q.q.7.P N c 8 0 t x 0 # @ . . # * o # * :                   S Z Z Z B a r =.[ z k s d q       ",
"  s 8 a a g d g g g p 3.- c T q.e.8.8.0.q.~ Q M.t , * $ 7 0 @ . @ $ $ : ,                       Z Z A R Z d s ( J z s d k 5     ",
"  m 1 p a d d d d d f K ; L 9.q.9.9.8.t.V.V.B.V.f., * @ o % # # @ % @ : ,                         a P E ! B d q l K k d k 6     ",
"  P 9 p a d d d a a J ; z ;.f.9.9.8.B.B.B.        < < , @ o % % @ @ @ , $       , 5 X.3.            1 h E ^ B g 1 i n s k w     ",
"    1 p p d a a a p V O ,.5.r.9.9.B.B.B.            < 7 , @ # # o @ # ,       * 5 e $.l.l.            ; 1 a R 1.L 5 j.k k r     ",
"    1 p a d d a a s 0 f u.9.r.f.B.B.B.                  , , % o @ @ $ *     , 5 5 e H H f                 > > F C.i.l n k r l   ",
"    5 a d d a a 1 H , K 5.9.B.B.B.                        : # @ @ @ @ # @ * < 5 , $ 0 t 7                   O O ] 3.u %.b k l   ",
"    1 a a d d a a O.< L &.f.B.B.                            o # o o @ % $ , : $ # o : < %.                    # X : n %.*.k v   ",
"    q a d d a a n n 9 L 9.M.V.                            H $ $ @ @ @ # @ $ % @ o o # $ s.                      - 8 ( } >.>.v   ",
"    s a f g a t s.= m P 7.N.                            L < , O @ % # @ o @ o o # o * 0 z.                        ] ] [ <.>     ",
"    C a d d a V $.8 L B.B.                            L t , , # o % % @ @ o o o $ o * 0 s.                          q n s & X   ",
"    &.a d s s i.f N M.N.V.                          O.n , < * $ @ @ $ , @ # : :   @ # e s.                        + X   8   X   ",
"    M.g s d c >.x f.B.B.                          O.K t < , $ , , , , < < < 5     # $ t s.                            * *       ",
"    t.s s d 4.n @.B.B.                          <.L H < , * * - % $ < < 5         5 , 5 s.                                      ",
"      s a z >.b g.B.                          2.O.L t , & % & @ o                 t , ,                                         ",
"      q a V V @.V.B.                        L +.=.l , # @                         x 7 5                                         ",
"      q a [ V r.g.                        L L K V 5 @ @                           K 5 ,                                         ",
"      q k | ..$.                        O.L J X.r & @                             K , e                                         ",
"    q V ] k.$.$.                        +.K K l 8 $                               n 5 n                                         ",
"    f K k.4.( |                       ,.,.K l 0 $                                 i , G                                         ",
"    f c.x.n l 7 u                     @.u.l 8 * 2                                 x , 4                                         ",
"    x.l.c l k   5                   5 n L x : o 2 k.    & *                       x 5 e                                         ",
"      l l l     t                   t t n 0 % @ % x 4.4.* %                     s.x 5 n s.                                      ",
"      e   r 0                       r 5 5 * % @ o @ : e % *                     s.x e 0 l.                                      ",
"      e 8                             % % * l =.K x 4 @ * *                       7 r e n s.                                    ",
"                                                      % %                             , 5 +.s.                                  ",
"                                                      % *                               4 8 @.s.                                ",
"                                                      & &                                 7 K s.                                ",
"                                                      * *                                                                       ",
"                                                  3 & # 4                                                                       ",
"                                                , 3 * +                                                                         ",
"                                                                                                                                ",
"                                                                                                                                ",
"                                                                                                                                "
};
