/* XPM */
static char *result[] = {
/* columns rows colors chars-per-pixel */
"64 64 17 1 ",
"  c black",
". c #263238",
"X c #5D4037",
"o c #D32F2F",
"O c #FF5252",
"+ c #FF9800",
"@ c #FFC400",
"# c #FFD740",
"$ c #FFE57F",
"% c #00838F",
"& c #0097A7",
"* c #4DD0E1",
"= c gray74",
"- c #B0BEC5",
"; c #80DEEA",
": c gray98",
"> c None",
/* pixels */
"                                                                ",
"                                                                ",
"                                                                ",
"                                                                ",
"                                                                ",
"                                                                ",
"                                                                ",
"                                                                ",
"                                                                ",
"                                                                ",
"                                                                ",
"                                                                ",
"                                                                ",
"                                                                ",
"                                                                ",
"                                                                ",
"                                                                ",
"                                                                ",
"                                                                ",
"                                                                ",
"                                                                ",
"                                                                ",
"                                                                ",
"                                                                ",
"                                                                ",
"                        &%&&&%%                                 ",
"                      &&;;;;;**%%                               ",
"                      &;;;;******%                              ",
"                     %;;;*********%                             ",
"                    %*;;***********%                            ",
"                    %*******&******%                            ",
"                   %&******&*&&&****%                           ",
"                   %o&******&.--&***&.                          ",
"                   %:&******...-%**&&.                          ",
"                   %o*******..o:%&&&&.                          ",
"                   %.*******:.o:%&&&&.                          ",
"                  %;;*******o.o:&&&&&.                          ",
"                  .;*&*&******&&&&&&&.                          ",
"                   .&********&&&&&&&.                           ",
"               &&&  ..**%%%%%%oo&&&&.  &%%%                     ",
"               %;&%..&..OOOOOoo&&&&.% &;;&&.                    ",
"              &;;;;&&.&&ooooo&&&&%.%&;;;%&.                     ",
"              %;;;;;;;.%&&&&&&&..+=&;;;%%&.                     ",
"               %&;;;;;&&%......@@@%;;;;&&.                      ",
"                %&&&&&&+@#####@@@%&;;&&&&.                      ",
"                 %%&&&++#####++++%&&&&&&.                       ",
"                   ..&+$+++++@###+%&&&&.X     %%%%              ",
"                     +$$$@$$$$$##+%&&&.ooX  %%&;;&%             ",
"                     +$$$@$$$$$#$$@...=ooX %;;;;;;&%            ",
"                     +$$$@$$$$$+$$@>o=-ooX%&&;;;;;;%            ",
"                     ++@$+$++$+$$$@@o==oo.&&&&&%%;;&.           ",
"                     +$$+++$$++$$$$@@==o.X&&&&%;;%;&.           ",
"                     +$$$+$$$@$+$$$#@o=ooX&&&%&;;;&&.           ",
"                    &+@$$@$$$$@$+$&&%%=oo.&&&.&&&&&.            ",
"                   &;;+$$@$$$$@$$&;;;&%=o.&&&.&&&&&.            ",
"                  &;;;+@@++$$$$@&;;;;;&=o.&&&&.&&&.             ",
"                  &;;;;++@@++$@@%;;;;;&%=.&&&&&...              ",
"                  %;;;;&o@@@@+++%;;;;;&.%&&&...                 ",
"                  .%;;&&&oo@@@@+.&;;;&&%....                    ",
"                   .&&&&&&.oo....%&&&&&&.                       ",
"                   %&&&&&..      .&&&&&&.                       ",
"                  %;&%;&..        .&&&&&&.                      ",
"                   .. ..          .;&.;%..                      ",
"                                   ..>..                        "
};
