/* XPM */
static char *dc70880250b0464ef9ec1866e9cc0480pKjtht0VIvtRyS8s[] = {
/* columns rows colors chars-per-pixel */
"64 64 74 1 ",
"  c #25252D",
". c #28282E",
"X c #282830",
"o c #292931",
"O c #2A2A31",
"+ c #2B2B32",
"@ c #2C2C33",
"# c #2D2D34",
"$ c #2E2E35",
"% c #303036",
"& c #313137",
"* c #323237",
"= c #333338",
"- c #333339",
"; c #343439",
": c #353539",
"> c #35353A",
", c #36363A",
"< c #36363C",
"1 c #37373C",
"2 c #38383D",
"3 c #39393D",
"4 c #38383E",
"5 c #39393F",
"6 c #3A3A3F",
"7 c #3C3C3F",
"8 c #3C3C40",
"9 c #3D3D41",
"0 c #3E3E41",
"q c #3E3E42",
"w c #424243",
"e c #424244",
"r c #434345",
"t c #444444",
"y c #444445",
"u c gray27",
"i c #454546",
"p c #464647",
"a c gray28",
"s c #484947",
"d c #474749",
"f c #484949",
"g c #4B4B4A",
"h c #4A4A4B",
"j c #4B4B4B",
"k c #4D4D4C",
"l c #4E4E4E",
"z c gray31",
"x c #525253",
"c c #535354",
"v c gray33",
"b c #545455",
"n c #555555",
"m c #555556",
"M c #565657",
"N c gray34",
"B c #575758",
"V c #585858",
"C c #5A5A5A",
"Z c #5B5B5A",
"A c #5B5B5B",
"S c gray36",
"D c #5D5D5D",
"F c #5F5F5F",
"G c #616163",
"H c #626263",
"J c #646465",
"K c gray40",
"L c #686868",
"P c DimGray",
"I c #6A6A6A",
"U c gray42",
"Y c #6C6C6C",
"T c gray43",
/* pixels */
";;==oo    .o;;;2rdffidljIIUUDDAAADmVjggaBVVVhhjfffiaaaaaaaii41--",
";;==.o    o.;*;2dfffsiljILTUDDVADVVVjaggVAVVjjijffaaifaaaaii;4;;",
"11;;ooo.o+++==22rrrriillLIUUDDVAAAVVjzgjmmBBhdrraaffljglllgj8822",
"121;ooo.oo++=;;1rrf8jijlIIUTDDAAAAVVjjjjmmvBrhdiaaffgglllgjj8882",
"iiii*;;;wrrr1;;18=88drllUIUTDDAVVDVAVVVVzhrh#8-8iiljKKILYIKLBVvv",
"iiwi1;;=rrrr;2;;-88-rrhlULUUDDAVAADVVVNmhzhr8888iijjKGLIILLKBVvB",
"jjji2828rrrr8;1=---8drlhLKIIAAAADAVDVVmNddq88%8#iillILTTYYYLSSSS",
"jjij2222rrrr;1;;-#88iillKLIUADVADVAVVVVvfhq888-8iilgIITTYYIYDSAA",
"VmBmjirr1111>1=>8 8oqqhhSASSSVSAAAVVlhih88#8--8-rrglIYYYFFSSVSVV",
"VVmBiddr;81==>>=8 88drhhASDSASAVDVVVllhi888-=8-8ifllKIYYFFSSDSVS",
"VVBmhdrr=8===>=>8888qrddxvBvBBvvvvcchirr#8$=--8#iijjIKKIASAASVDD",
"VVmmfjrr=;==>=>= 8o8rrrdvxxBxBxlmcxxijrq88---o88iijjKKIKASVAVVDV",
"jjsa81==XoXo====XXXXXX 8888@=888+$##;;--#-----#8iijfljzzVVZDDDSS",
"jjij;8==oXo@====  XXX  o888888#8$+#+;18---=o--8-iiffjglzVVSVDVDV",
"tdii8888####=8=>8 8o8   8888-88-**$*247888-8888-fiiaiiddvvmmvmmv",
"irtt8888@=@@>>=1   ooX8 o8o888-8*$*$;88;88888888iiaarridvvmmmvvv",
"1199GGKKmBxxaatttiiimxmxvmmmmmBVJJJJVVmmmmBvVvvvgjwr>>8%8888 @@o",
"119qGGGKBVxxaadttrdixxvvVmmmmmVVJJJJmVmmmmvvvVvvjjii8<>88>8>@@$@",
">19qKYTYDDVVgjjjhfhjmVVVDVSZSSSDYYYYSDSVSSZZVVVvlgaa18;2&8&>XXX ",
"1>qqKKYYDDVVjjjjffhjmmVVVSZSSZSSYYYYDDSSSSZSVVvVggaj81828&>>XX  ",
"iihhYPYYDDVVBmBBjjfdjaggNVZZVSDSYYIYSFSVVSVVjzjzBmNmisarrdeeXX  ",
"idhhPPYYDDAZmBBBjjfjggjlVmZSSVDSYYYISFVSSSVVjgjjmBmmaarrdree@o  ",
"fjzzKYPYDDVZBmxxiaatisjjmBVVVVVDIYIYSSSVVVvvfgggBmBmgjiaideeo@XX",
"jfzzKKYKSDDVNVxxwjwisijjBmVVVBSSYIYIFSVSVVvVgjfgmBmBgjaaiier@@XX",
"mVVVDADDAANm88887828iifffjjjggzzIIYYSSVVljjgssafjffjdhrr222;;*;;",
"VVVVDDDDAAmN8881;;8;iifflfjjfgzzIIYYFSVVjjjjjsjajjjfjhfh22;2;;*;",
"VVVVZVVZVVmc841;;;;1iihdaaiaiifjGLLLVVvvdirrwriitriirdrr11=;;;;;",
"VVVVAVZZVVcc88;1;1;2rdddaaaairjfJJLGVVvviirrritriirdrrqq11==11;;",
"jjljVVVVjljjiiir;18-qrdhjaia2884hhjj8814o@@@X@@@4;2;=;8-;;;;;;;1",
"jjjjVVNVjjggaitt;8-8idhhffii1182hfjj888;@@XX@XoX-;1281-811;*;1;;",
"itiivxxxsiitittt;8;-88jriirr;441hdhd181<#=$#@@@@>8228;;;;8;8;;;;",
"itiivxxxiiiitdtt8;-8iiidiirr4;;2ddde8881=$$@@@@@8182;1881;;4*;*;",
"@X@X@@@@@oo#---8&##88>>>=881;-;8xxVVBBmBKJJJVVmmmmcvjdrriawro+o.",
"X@XX@@@@oo#o--8-88&o&>8=8==-;*8;vvVVBmBBGGJJVmmmmmvvfirdiiwro+Xo",
"@X@X@@@@####8888888888188=881188xxBvBVVSLYLYSVVVVVmmffirdftw++XX",
"X@@X@@@@@@oX88e8888&888888-81488xxBBmVDVYLYLVDVVVVVmffiriiww+oXX",
"rrrixxBmvBvBJKJKhmmbvmmmxBxxjarr8272ffljVSSSjlgfggff7411>>>1;;*;",
"rriixxvxvxmBJJKJcmmmBvmmxxbmairr8777ffllSSSVzgggjjaa44118811;=;*",
"lgzzAADDAASSYYYYSSSSAAAABBmmjatt-;;1wrfdvVvVjfaaiaiw41-;$>=111;2",
"llzzAADDASDDYYYYDSSAAAAABABmsatt;;;-rrddvvVvgjaaarri;4-;>>1=1;8;",
"LIIIYYKISSDDYYYYDDAAAAmBgjfj841;++..1;81ddhhfffi8111;;;;=>>1rrdd",
"LIIIYILISSDDYYYYDDAAAABBggji44;;+ooo;;18ddjdfiri11142;;;>=1>rrrd",
"YYYYYYILVDSDILILSABBBBbBggii44-;#=$=8;87irffjjaa884;2;;2$=>1iiff",
"YYYYYYLISDVVLILISSmBBBmBgafd44;1=#=#;;87idffggaa>8;4121;>==>iiff",
"DDDSDDZSljllSZZDlggghhhhffiirfjgHHHKNmvvgffjVmNvrdddiitw++++rrjf",
"DDDSDDSZllljZSZVllgghljjfffidrjgHHKHmVvmggjjmBmNrdrraitt++++riff",
"VVNNVmvvjraavvxviittririiifidizgIITYDDVVjjjjBmmmjjdiatww++++wwii",
"NNNNNVBvaaaavvvvidiririririiaagzIIYYDDVVjlljmBmNjgaati8t++o.wiii",
"fggajjfd21>88&&8#+o+o+++;-22iizzYIYYDSVZVVNmjggaifri##++-=--;1;1",
"gfjgjgjd188>88&8+#+o+o++;122irgjLYYYDSSVVNNmjgggffrt#+++**==4;;1",
"gijfijra1111>&&&XX  ..+o;184frjgLLLLSSVVNmccjfiiiiit++oo48481822",
"jjjjjaar181>&8&>XX  ...o1;8;ralzKLLLSSVVmVccdjitirww++oo28888482",
"VVVvjiaadrrr8&&&XX..**1;ttiiaiggSVDVljff84444111121;;-88GGKJBBxB",
"VVvVjlaadrrr>8&>Xo..%==;rraiaaggVDSDhhff484412112;21=;22GGJKBmBv",
"DVVVjjiadfdd88>>o+o.==12rtiaaaggmBvvddir;4;4;1;;;;;;;;88LLYYSSAS",
"SSVVjjaaffqq88$8+oo.==22riiiaaggBmBvffrr482-;;;;;;;;;;87LLYYDSDV",
"AAVVggiifffsiitt1===;;1=;422aiffggja7444irii11;;;;;-;-88LLYYSDVA",
"AZVVggjsffisiitt==;=;;;;4;81iiffggaa4444rrtr11;;;;;=;;77KLYYDDSV",
"VVNNggidddrijsii11;;====--=1rtiirirt11;1wrww=1==114114q7JJYIVSBB",
"VVvNggidiiiiassi41;=====-=1-ttitiitt14;1rwwr;;==4;12;18wJKIIDSmB",
"sjjjffii4822ifii11==ooXX.Xoo1;2142;1---;++o+..++rwriiiffVSVSjjhh",
"jjjsffdi;,22iiit11==ooXX.o+o;;144;41-1;=+++oX.++wwiaiiffSVSZllhh",
"aaisffii212,iiii11=;XX    XX=-;;--;;;;==XX    .+riffjajjVVVNjjfi",
"aaaafjii;21;iiis41--XX    XX--;;;;;;1;==XX    ++irffifjgVvVNajaa"
};
