/* XPM */
static char *_c00d1a28b704501d9f730f50a9a1996L9ZY2FRc6TxUsYIq[] = {
/* columns rows colors chars-per-pixel */
"64 64 162 2 ",
"   c #2D3D3D",
".  c #313E3F",
"X  c #38393F",
"o  c #333E40",
"O  c #3B3C42",
"+  c #2B4647",
"@  c #2B4949",
"#  c #344343",
"$  c #3E4145",
"%  c #364749",
"&  c #3E434A",
"*  c #364C4C",
"=  c #3E4C4F",
"-  c #35514F",
";  c #364C52",
":  c #255152",
">  c #3A5553",
",  c #3C5856",
"<  c #127D7F",
"1  c #3D6460",
"2  c #414146",
"3  c #42454B",
"4  c #43494E",
"5  c #4D4D4E",
"6  c #504F4F",
"7  c #50504F",
"8  c #424E51",
"9  c #4F4F50",
"0  c #425354",
"q  c #4E5254",
"w  c #455558",
"e  c #4F565A",
"r  c #465C5D",
"t  c #4A5E5F",
"y  c #525353",
"u  c #50555A",
"i  c #535C5C",
"p  c #5D5E5E",
"a  c #54615F",
"s  c #5F5F60",
"d  c #4E6263",
"f  c #4C6866",
"g  c #536565",
"h  c #5D6464",
"j  c #576B6B",
"k  c #5B6D6C",
"l  c #5D706E",
"z  c #547675",
"x  c #5D7373",
"c  c #567877",
"v  c #577F7E",
"b  c #5C7C7C",
"n  c #636363",
"m  c #646768",
"M  c #646B6B",
"N  c #6B6B6C",
"B  c #6E6E70",
"V  c #706E70",
"C  c #627674",
"Z  c #6E7373",
"A  c #617877",
"S  c #647A78",
"D  c #6D7C7C",
"F  c #757575",
"G  c #757979",
"H  c gray47",
"J  c #57807F",
"K  c #62827E",
"L  c #75817E",
"P  c #5F7D80",
"I  c #617F81",
"U  c #198486",
"Y  c #1A8688",
"T  c #158C8F",
"R  c #1E8C8E",
"E  c #0E8E91",
"W  c #138E91",
"Q  c #159396",
"!  c #1A9090",
"~  c #179598",
"^  c #189898",
"/  c #208A8C",
"(  c #208E91",
")  c #229999",
"_  c #2A9899",
"`  c #1AA1A2",
"'  c #24A4A5",
"]  c #22B5B9",
"[  c #25B9BE",
"{  c #28BABF",
"}  c #558385",
"|  c #5D8283",
" . c #5B8789",
".. c #568A8C",
"X. c #5B8B8D",
"o. c #5D8E90",
"O. c #5B9294",
"+. c #549B9D",
"@. c #628284",
"#. c #628884",
"$. c #638688",
"%. c #648D8D",
"&. c #788582",
"*. c #708A88",
"=. c #659595",
"-. c #6E9292",
";. c #709999",
":. c #6CC5B4",
">. c #64CCBB",
",. c #6ECAB9",
"<. c #72CCBB",
"1. c #69D0BF",
"2. c #77D0BE",
"3. c #1DBFC4",
"4. c #28BFC4",
"5. c #14C1C7",
"6. c #1EC1C7",
"7. c #1FC4C9",
"8. c #16CBD0",
"9. c #20C2C7",
"0. c #29C3C7",
"q. c #2AC6C9",
"w. c #21C9CE",
"e. c #2ACBCE",
"r. c #34C8CB",
"t. c #22CED0",
"y. c #21D3D6",
"u. c #2CD1D4",
"i. c #24D5D8",
"p. c #2DD7DB",
"a. c #37D7D9",
"s. c #67D4C3",
"d. c #69D5C4",
"f. c #6AD4C4",
"g. c #62DECE",
"h. c #6CDCCB",
"j. c #74D2C1",
"k. c #7BD7C5",
"l. c #7AD8C5",
"z. c #7EDAC8",
"x. c #63E2D2",
"c. c #76E3D1",
"v. c #78E8D6",
"b. c #78EAD8",
"n. c #81DFCD",
"m. c #B6D5CF",
"M. c #B6D5D0",
"N. c #BEDDD6",
"B. c #BADED8",
"V. c #80E1CE",
"C. c #BAE7DE",
"Z. c #BCE8DF",
"A. c #B3E7E1",
"S. c #BEE6E0",
"D. c #B6E9E3",
"F. c #B7F1E9",
"G. c #B8F0E8",
"H. c #B7F8EF",
"J. c #B8F8EF",
"K. c #B8F9F0",
"L. c #C0ECE2",
"P. c #C0F0E8",
/* pixels */
"O X X O .               o X O O 5 5 6 6 9 9 y y H F H H n N n n n n n s 6 6 6 y n n n n y y 6 6 6 6 6 6 7 7 7 5 7 6 5 5 O O X O ",
"X O O X                 X X O 2 5 5 6 6 9 9 6 p F F F H n N n n n n s n 6 6 y 6 n n n s y 6 6 6 6 6 6 6 7 y 6 6 7 5 6 6 O O X X ",
"O O O o .     .   . . # o X O O 3 5 5 9 9 9 y y F F H H N n n n n n n n 6 p y y s s s s 6 6 6 5 6 7 6 7 y y p y y y y y 2 2 2 O ",
"O O O O . .     . . . . X X 2 O 5 5 5 9 9 9 y y F F H F n n n n n N n s y y y y s s s s 6 6 6 5 5 5 7 7 y y 7 y y y y y 2 2 O 2 ",
"5 5 5 3 X O O O 3 5 3 5 O O O X O O O & 5 5 y y F F F H N N n n n n n n n n s s y y y 6 2 O O 2 5 5 p y V V F F F F F V n n p p ",
"5 5 5 5 O O O O 5 5 5 5 O O X O O O O & 5 9 y y F F H H n n n n N n n n n n n s y y 6 6 O 2 2 2 5 5 y y V V F H F F V F n n s p ",
"y y 9 9 2 O 2 2 5 5 5 5 O O X O O O O O e w d d F F F F n n s s s p p p p p p p 6 6 3 5 O O 2 O 5 5 y y L L &.&.G L D D m M n n ",
"y y 9 9 $ $ O O 5 5 5 6 O 2 X X O O O O r r t s F V F F n s s s s s p p s p p p 6 6 5 6 O O O O 5 5 i y L L &.&.D K D G m N n m ",
"n n s s 7 7 3 5 X O O O O O X X O X O ; ] ] 4.] x C s s 3 3 $ O X O # #   # # # O O O O O O O O 5 5 a a <.<.j.f.) ) / / c c C C ",
"s n s s 7 5 5 5 O 2 O O O O X O X O ; ; ] ] ] ] C B s p 2 3 $ $ o o # . # # # . O O O O O X O O 5 7 a i <.<.f.f._ ) / / c b C A ",
"n n p p 7 7 5 5 O O . X X X X X O o ; ; 3.4.4.4.j j p p 2 2 $ $ * - - - @ @ + + & $ 2 2 O O O O 5 5 i g <.<.f.f.) ) R / b c C A ",
"n s p p 7 7 5 5 O O X o X X O X o O ; ; 3.] 4.4.j j p p 2 3 $ $ - - - - @ @ + + $ $ $ 2 X X 2 O 5 5 g i <.<.f.f.) ) / R c v C C ",
"7 y 7 7 2 O O O . . . . X X O X     O % ....X...4 4 O 3 p u m M :.:.>.>.R ! U U z z j k $ $ O O 5 5 y y %.%.=.=.X.o. . .M k n m ",
"y y 7 7 2 O O O   . . . X X O X     % % ....X...4 4 2 & p p M M :.,.>.s.! ! Y Y z z k k $ $ O X 5 5 i u %.%.=.=.o.o. . .M M m n ",
"5 5 6 5 3 3 2 O . O # # O O O O o o % % P P x P & & 2 O s u C M 2.2.1.f.) ) R R z c l x 3 3 2 2 5 5 y y P b  .P | | | P a n a s ",
"5 5 5 5 2 3 2 2 # # # # O O O $ o o % o P P P I & & O 2 e s M M 2.2.f.f.) ) R R | z l l 3 3 2 2 6 q y y b P I | @.| S K n n s p ",
"X X 2 5 N V V V n s p s 7 7 6 5 5 5 7 5 y i q q O O O O O O 4 4 X.%.=.=.o.X. . .M M m n p p p p 6 6 5 5 3 3 & & 3 & & & # # # # ",
"O O 3 2 N N V V n n p y 7 7 6 6 5 5 5 5 y y q q O O O O O O 4 4 %.%.=.=.o.X. . .M M n n h p p a y 6 5 5 & 3 & & & & & $ # # . # ",
"O O 3 3 V F H H N n n n y y y y 5 5 5 5 5 5 7 7 q q q q 4 8 w w I b @.@.#.$.@.@.m m n m F F Z D g h i i 3 3 $ $ O O X O .       ",
"O O 2 3 F F H H n n n s y y y y 5 5 5 5 5 5 5 5 q q e q 8 8 w w b I @.$.$.$.#.K m m n n Z F Z Z a g a i $ 3 $ $ O $ O O         ",
"5 5 y y F F H H n N n n s n p p 2 2 O O X X q q m.m.Z.Z.k.k.:.:.g g i y n m m m n n Z Z N.N.S.L.n.z.,.,.S J k k 7 7 3 5 . .     ",
"5 6 y y F F F H n N n n n s p p O 2 O O X X q q m.M.Z.Z.k.k.:.:.g h y i m m m m n n F Z N.B.L.L.z.z.,.<.S K j l q 7 5 5 . .     ",
"7 7 p y V F F F m n a n m m h m u u 8 q w = g g A.A.K.K.b.b.f.f.f f y q n m m n n n Z Z D.D.H.H.c.c.1.1.#.#.x S q 7 4 5 . #     ",
"y y y y F F F F n n n n m m m m u u e e 8 = g g A.A.K.K.b.b.f.f.f f q t n a n m n i Z Z D.D.H.H.c.c.1.1.#.#.x x y y 5 5 . .     ",
"n s n n n N n n y y p y @.P -.-.B.B.S.C.k.k.s.s.a.a.p.p.i.i.w.w.Q Q / U c c l l y i d d r.r.u.u.` ` ) ) ..o.P P = & X $ X X X $ ",
"s n s n m m n n y y a y I | -.-.B.B.C.S.z.z.s.s.a.a.p.p.i.i.t.w.W Q Y U c b C C y y d g r.r.u.u.` ` ) ) X.o.P P 3 3 X $ X X X X ",
"s n n s s s p p 7 7 y y b P -.-.B.L.G.P.V.V.h.h.q.q.7.7.w.w.6.6.^ Q R R z z M k 7 q r r [ [ 6.6.Q Q R / P ..P P & & X X O O X O ",
"n s n s p p p p 7 7 y y P b -.=.L.L.P.P.V.z.h.h.q.q.7.7.w.8.3.3.Q ^ R / z z k k 7 5 r r [ [ 6.6.Q Q T W } P P I $ & X O X O X O ",
"7 7 7 7 2 2 2 O O O O 2 7 7 i s -.-.;.;.=.=.=.%.x x c x O.O.O.O.J J z z 3 3 # $ . . % % ....O.o.P P z z 4 4 O & O O X O O X O O ",
"y 7 7 5 2 2 2 O O O 2 X y y s i *.-.;.;.=.=.%.=.x b x b O.o.O.O.J J z z 3 3 $ $ . . % % ....O.O.P P z z 4 4 4 O O O X O O O X O ",
"6 5 5 5 X O O O 8 8 0 0 r t f d P  .$.$.$.$.P I n h s s P P P P l C k l e e 9 q - > , , @.I @.$.b x f j 2 2 X O O O O O X X X o ",
"6 6 2 5 X O O # 8 8 0 0 r r f d  .I $.$.$.$.I I s n h n P P P P c x x k e e 0 q > - , , I | @.$.C x x j O O O O O O O O o O X O ",
". . . .     - * :.:.f.f.0.0.[ [ | | C C i i y y 2 2 $ $ % # % # $ O e e m.M.Z.Z.l.l.,.:.C Z m m y i y y 5 9 5 5 5 5 5 5 . .   . ",
". . . .   . - * :.:.s.f.q.q.[ [  .} x C i i q y 2 2 O $ # % # # $ $ e e m.M.Z.Z.k.z.:.,.C C m m y y y q 9 5 5 5 5 5 3 5 . .     ",
"# . # . o o > > :.,.h.x.e.e.4.4.J J C C u y 7 7 2 2 O $ # . o # * = g g A.A.H.J.c.c.1.1.x x h g y i y y 5 7 5 5 5 9 5 5 o o     ",
". . . . # . , > >.,.h.h.e.e.4.0.J J l C y i 7 7 2 2 $ $ . . # . 4 = f g A.A.J.J.c.c.1.1.x b g h i q y y 5 5 5 5 5 5 5 3 o o   . ",
"5 5 5 5 p p h h %.=.=.=.O.O.O.o.N M m m s n s s a s p p 7 7 t i :.:.f.f.a.a.u.u.` ` ^ ^ T T / Y z z l l $ $ O O O O O O O O . O ",
"5 5 0 5 p p h m %.%.=.=.O.O.o.o.M M m n s h s s s s p p 5 7 i t :.:.f.h.a.a.u.u.` ` ^ ^ T W / / c c l l 3 3 O O O O O O X X O X ",
"y y y i n n N m @.@.$.#.$.*.$.@.m m n m x l l l n n p s 5 7 i a ,.,.f.f.e.q.3.3.Q ^ T T ! ! R R z z j j $ $ X O O O O O O O O O ",
"y y y y n m m N @.@.$.$.$.$.*.$.m m m n l l l l n n s s 5 7 i i :.:.f.f.q.q.3.3.Q Q Q T Q W R R c z j j $ $ X X X X O O O O O O ",
"H H F F H H F F N n N N G G G G n n l x { { [ [ s t 9 q O 2 2 2 i i g g J J  . .X.X.X.X.X.o.} } * * # .       . O X O O 5 3 6 5 ",
"H H F F H F F H N N m m G G G G m n l l { { [ [ t t 9 5 2 O 2 2 i t g g J J } } X...X...X.X.} } * % # + .   .   O X O O 5 5 5 5 ",
"H H H H F H F F n n n n F F F F n n l k ] [ ] ] t t 5 6 O 2 2 O 6 y s q k k x x J | | | | | c J , , - - + + + + o o O O 5 5 6 9 ",
"H H H F H H F F n n n n F H F F n n k k [ [ ] [ t t 5 5 2 O O 2 y q y i k k x x #.| | | | | J J > > - * @ @ + + O o O O 5 6 6 9 ",
"n N N n n n n n y y y y n n n n y y y 7 t t t t q y 5 9 6 6 y y V V B B 3 4 $ $ # # + # # # , > :.:.>.>.! ! < < + + . X 5 5 6 6 ",
"n n n N n N n n y y y p n n n n i y y 7 t i t t 9 9 9 5 6 6 y y V V V N 4 3 O $ # # # # # # , , :.:.>.>.! ! < < + + . . 5 5 6 6 ",
"n n s s p n n s 9 9 6 6 a p p p 7 7 5 5 5 5 5 5 5 5 5 5 6 6 y y F F F F q w 0 8 w 0 0 0 - , 1 1 s.s.g.g.` ` W E : : * @ q q 9 y ",
"n n s p n n s s 9 9 9 6 p p p p 7 7 5 4 5 5 5 5 5 5 5 5 6 6 u y H F F F w q 8 0 0 0 0 , - - 1 1 s.1.g.g.` ` E W : : @ @ q q y y ",
"7 7 y 7 7 y 7 6 2 2 O O 2 2 O O o . . . . . . . O O $ $ 5 5 y y F F &.&.<.<.k.k.C.C.C.C.k.l.s.s.i.u.y.y.8.8.3.5.E E Y U z z C x ",
"7 7 y y 7 7 6 6 O 2 O 2 2 O O 2 . # . . . .   # O O 2 X 5 5 y y F H &.&.:.<.k.n.C.C.C.S.k.l.s.s.u.u.y.y.8.8.5.5.E E Y Y z z x C ",
"7 y 7 y 6 6 6 6 2 O O O $ 2 2 2 - * - - @ @ + + % & 3 3 9 9 y y V F &.&.<.j.n.n.F.F.F.F.v.v.x.x.e.e.t.8.w.w.6.6.~ ~ R R b b S S ",
"y y y 7 6 6 6 6 O 2 O O $ 2 2 2 - - - - @ @ + + & & 3 3 5 6 y y F V &.I 2.2.n.n.G.F.F.F.v.v.x.x.e.e.w.w.w.t.9.6.~ ~ R R b b S S ",
"n n p p 7 7 6 6 5 5 7 7 k k K J ,.,.>.>.R ! Y Y } } P b y u y y n n N N &.&.&.*._ _ ' ' t.t.e.e.+.+.O.O.O.O.O.o.J J x b G G G G ",
"n n n p 7 7 6 7 5 q y 7 k k K K ,.,.>.>.! W Y Y } } A b y y y y n n N N &.I *.*._ _ ' ' t.t.e.e.+.+.O.=.O.O.O.O.J J b b G D G G ",
"n n n p y y 7 7 7 7 y y l l K K j.j.f.f.) ) ( (  .X.@.I i y q 6 p p s n V V Z C / / ^ ~ 6.6.4.0.o.o.#.$.$.| @.@.A A C S G F F H ",
"n n n n y y 7 7 7 7 y y l h K K j.j.f.f.) ) ( (  . .K @.y i y y p p n n V V S B / / ~ ~ 3.6.0.0.o.X.#.@.| @.I P A A C S F G H F ",
"n n p n y y y 5 7 7 q 7 q y a i %.%.=.=.o.o. . .M M n n y y 6 6 6 y 6 6 2 2 5 3 z z J J o.O.O.%.M M n n 3 3 3 3 n h n n N N n N ",
"n n n n y y 5 6 7 7 7 7 y q i i %.%.=.=.o.o. . .M M n s y 9 6 5 6 y 6 6 2 2 5 3 z z J J O.O.O.X.M M h h 5 3 5 3 a n N n n n n n ",
"n s p s y y 5 6 5 5 5 5 7 7 y y b b P $.P  .I b m s s p 6 6 5 5 6 6 6 5 O O 2 O j j x x J K K @.m h p p O 2 2 2 s s n n s n n s ",
"s n p p 7 y 6 6 5 5 5 5 7 7 i y b b  .|  .P P P s h p p 9 6 5 3 6 6 5 5 O O O 2 j k c c K J b b h m p p 2 2 2 2 s s n n s s n n ",
"y y 7 7 6 6 5 5 2 O O 2 5 5 5 5 3 & & & # % + + o + o o O O O O O O O O O O O O # # # # # % % * q q 9 y 6 6 6 7 s n s n y y y y ",
"y y 7 y y 9 5 5 O 2 2 2 5 5 5 9 3 3 & & % # + + % o O % O O O O O O O O O O O O # # # # % # % # q q y 9 6 6 6 6 n s n n y y y y ",
"6 6 6 6 6 6 5 6 O O O O 9 5 5 5 O O X X             o o X O X O O O O X O X O O             . . 5 5 6 9 6 6 7 7 s n n s y y 7 7 ",
"6 6 6 6 y 9 5 6 O O O O 5 5 5 5 O O X X           o o o X O X X O X X X O O O o             .   5 5 y 9 6 7 y 6 s n s n y y 6 6 "
};
