/* XPM */
static char *e48a7a39678f4a2ef8bc3cbc3cb67ad5F103v2mBjSaPVkC6[] = {
/* columns rows colors chars-per-pixel */
"64 64 12 1 ",
"  c #5F7072",
". c #686868",
"X c gray46",
"o c #668382",
"O c #6D9292",
"+ c #73A4AD",
"@ c #78CFFB",
"# c #5DEDF5",
"$ c #808080",
"% c #909090",
"& c #C8E8FE",
"* c white",
/* pixels */
"$$$$XXXXXXXXXXXXXXXX$$$$$$$$$$$$....$$$$$$$$XXXXXXXXXXXXXXXX$$$$",
"$$$$XXXXXXXXXXXXXXXX$$$$$$$$$$$$....$$$$$$$$XXXXXXXXXXXXXXXX$$$$",
"$$$$XXXXXXXXXXXXXXXX$$$$$$$$$$$$....$$$$$$$$XXXXXXXXXXXXXXXX$$$$",
"$$$$XXXXXXXXXXXXXXXX$$$$$$$$$$$$....$$$$$$$$XXXXXXXXXXXXXXXX$$$$",
"$$$$$$$$%%%%%%%%    %%%%$$$$XXXXXXXX%%%%%%%%%%%%oooo    $$$$XXXX",
"$$$$$$$$%%%%%%%%    %%%%$$$$XXXXXXXX%%%%%%%%%%%%oooo    $$$$XXXX",
"$$$$$$$$%%%%%%%%    %%%%$$$$XXXXXXXX%%%%%%%%%%%%oooo    $$$$XXXX",
"$$$$$$$$%%%%%%%%    %%%%$$$$XXXXXXXX%%%%%%%%%%%%oooo    $$$$XXXX",
"$$$$....XXXXXXXX@@@@XXXXXXXXoooo    XXXX$$$$$$$$&&&&@@@@$$$$$$$$",
"$$$$....XXXXXXXX@@@@XXXXXXXXoooo    XXXX$$$$$$$$&&&&@@@@$$$$$$$$",
"$$$$....XXXXXXXX@@@@XXXXXXXXoooo    XXXX$$$$$$$$&&&&@@@@$$$$$$$$",
"$$$$....XXXXXXXX@@@@XXXXXXXXoooo    XXXX$$$$$$$$&&&&@@@@$$$$$$$$",
"$$$$$$$$$$$$$$$$$$$$....$$$$&&&&####$$$$XXXXXXXXXXXXXXXXXXXX$$$$",
"$$$$$$$$$$$$$$$$$$$$....$$$$&&&&####$$$$XXXXXXXXXXXXXXXXXXXX$$$$",
"$$$$$$$$$$$$$$$$$$$$....$$$$&&&&####$$$$XXXXXXXXXXXXXXXXXXXX$$$$",
"$$$$$$$$$$$$$$$$$$$$....$$$$&&&&####$$$$XXXXXXXXXXXXXXXXXXXX$$$$",
"%%%%%%%%%%%%XXXXXXXXoooo    XXXXXXXXXXXX    oooo%%%%%%%%%%%%$$$$",
"%%%%%%%%%%%%XXXXXXXXoooo    XXXXXXXXXXXX    oooo%%%%%%%%%%%%$$$$",
"%%%%%%%%%%%%XXXXXXXXoooo    XXXXXXXXXXXX    oooo%%%%%%%%%%%%$$$$",
"%%%%%%%%%%%%XXXXXXXXoooo    XXXXXXXXXXXX    oooo%%%%%%%%%%%%$$$$",
"XXXXXXXX$$$$    oooo****&&&&    $$$$....****&&&&    XXXXXXXXXXXX",
"XXXXXXXX$$$$    oooo****&&&&    $$$$....****&&&&    XXXXXXXXXXXX",
"XXXXXXXX$$$$    oooo****&&&&    $$$$....****&&&&    XXXXXXXXXXXX",
"XXXXXXXX$$$$    oooo****&&&&    $$$$....****&&&&    XXXXXXXXXXXX",
"$$$$$$$$OOOO****&&&&@@@@@@@@####++++%%%%@@@@####OOOO$$$$XXXX....",
"$$$$$$$$OOOO****&&&&@@@@@@@@####++++%%%%@@@@####OOOO$$$$XXXX....",
"$$$$$$$$OOOO****&&&&@@@@@@@@####++++%%%%@@@@####OOOO$$$$XXXX....",
"$$$$$$$$OOOO****&&&&@@@@@@@@####++++%%%%@@@@####OOOO$$$$XXXX....",
"XXXX        OOOOOOOOOOOO++++++++OOOO    OOOOOOOOXXXX$$$$$$$$$$$$",
"XXXX        OOOOOOOOOOOO++++++++OOOO    OOOOOOOOXXXX$$$$$$$$$$$$",
"XXXX        OOOOOOOOOOOO++++++++OOOO    OOOOOOOOXXXX$$$$$$$$$$$$",
"XXXX        OOOOOOOOOOOO++++++++OOOO    OOOOOOOOXXXX$$$$$$$$$$$$",
"$$$$&&&&@@@@....%%%%$$$$$$$$OOOO****&&&&    %%%%$$$$%%%%%%%%%%%%",
"$$$$&&&&@@@@....%%%%$$$$$$$$OOOO****&&&&    %%%%$$$$%%%%%%%%%%%%",
"$$$$&&&&@@@@....%%%%$$$$$$$$OOOO****&&&&    %%%%$$$$%%%%%%%%%%%%",
"$$$$&&&&@@@@....%%%%$$$$$$$$OOOO****&&&&    %%%%$$$$%%%%%%%%%%%%",
"$$$$XXXX$$$$$$$$    XXXXOOOO&&&&############OOOOXXXXXXXX%%%%$$$$",
"$$$$XXXX$$$$$$$$    XXXXOOOO&&&&############OOOOXXXXXXXX%%%%$$$$",
"$$$$XXXX$$$$$$$$    XXXXOOOO&&&&############OOOOXXXXXXXX%%%%$$$$",
"$$$$XXXX$$$$$$$$    XXXXOOOO&&&&############OOOOXXXXXXXX%%%%$$$$",
"$$$$$$$$%%%%%%%%@@@@%%%%%%%%XXXXOOOOOOOO++++    %%%%$$$$$$$$$$$$",
"$$$$$$$$%%%%%%%%@@@@%%%%%%%%XXXXOOOOOOOO++++    %%%%$$$$$$$$$$$$",
"$$$$$$$$%%%%%%%%@@@@%%%%%%%%XXXXOOOOOOOO++++    %%%%$$$$$$$$$$$$",
"$$$$$$$$%%%%%%%%@@@@%%%%%%%%XXXXOOOOOOOO++++    %%%%$$$$$$$$$$$$",
"....$$$$$$$$$$$$XXXX$$$$$$$$$$$$%%%%        &&&&####%%%%%%%%....",
"....$$$$$$$$$$$$XXXX$$$$$$$$$$$$%%%%        &&&&####%%%%%%%%....",
"....$$$$$$$$$$$$XXXX$$$$$$$$$$$$%%%%        &&&&####%%%%%%%%....",
"....$$$$$$$$$$$$XXXX$$$$$$$$$$$$%%%%        &&&&####%%%%%%%%....",
"$$$$XXXXXXXX        ....XXXXXXXX&&&&****&&&&@@@@@@@@####XXXX$$$$",
"$$$$XXXXXXXX        ....XXXXXXXX&&&&****&&&&@@@@@@@@####XXXX$$$$",
"$$$$XXXXXXXX        ....XXXXXXXX&&&&****&&&&@@@@@@@@####XXXX$$$$",
"$$$$XXXXXXXX        ....XXXXXXXX&&&&****&&&&@@@@@@@@####XXXX$$$$",
"$$$$%%%%%%%%&&&&####OOOO$$$$XXXXXXXX########++++OOOOOOOO%%%%%%%%",
"$$$$%%%%%%%%&&&&####OOOO$$$$XXXXXXXX########++++OOOOOOOO%%%%%%%%",
"$$$$%%%%%%%%&&&&####OOOO$$$$XXXXXXXX########++++OOOOOOOO%%%%%%%%",
"$$$$%%%%%%%%&&&&####OOOO$$$$XXXXXXXX########++++OOOOOOOO%%%%%%%%",
"$$$$$$$$$$$$OOOOOOOOXXXXXXXXXXXX$$$$$$$$OOOOOOOO$$$$XXXXXXXX$$$$",
"$$$$$$$$$$$$OOOOOOOOXXXXXXXXXXXX$$$$$$$$OOOOOOOO$$$$XXXXXXXX$$$$",
"$$$$$$$$$$$$OOOOOOOOXXXXXXXXXXXX$$$$$$$$OOOOOOOO$$$$XXXXXXXX$$$$",
"$$$$$$$$$$$$OOOOOOOOXXXXXXXXXXXX$$$$$$$$OOOOOOOO$$$$XXXXXXXX$$$$",
"XXXXXXXXXXXXXXXX....%%%%%%%%$$$$$$$$$$$$$$$$XXXXXXXXXXXX$$$$$$$$",
"XXXXXXXXXXXXXXXX....%%%%%%%%$$$$$$$$$$$$$$$$XXXXXXXXXXXX$$$$$$$$",
"XXXXXXXXXXXXXXXX....%%%%%%%%$$$$$$$$$$$$$$$$XXXXXXXXXXXX$$$$$$$$",
"XXXXXXXXXXXXXXXX....%%%%%%%%$$$$$$$$$$$$$$$$XXXXXXXXXXXX$$$$$$$$"
};
