/* XPM */
static char *result[] = {
/* columns rows colors chars-per-pixel */
"64 64 13 1 ",
"  c black",
". c #263238",
"X c gray46",
"o c #EF6C00",
"O c #8D6E63",
"+ c #66BB6A",
"@ c #FFD600",
"# c #A1887F",
"$ c #18FFFF",
"% c #81C784",
"& c #A5D6A7",
"* c gray88",
"= c gray98",
/* pixels */
"                                                                ",
"                                                                ",
"                                                                ",
"                                                                ",
"                                                                ",
"                                                                ",
"                                                                ",
"                                                                ",
"                                                                ",
"                                                                ",
"                                                                ",
"                                                                ",
"                                                                ",
"                                                                ",
"                                                                ",
"                                                                ",
"                                                                ",
"                                                                ",
"                                                                ",
"                                                                ",
"                                                                ",
"                                                                ",
"                                                                ",
"                                                                ",
"                                                                ",
"                                                                ",
"                                                                ",
"                                                                ",
"              ..               . .                              ",
"             .OO.             .+.+.                             ",
"       .... ..OO.             .++++.                            ",
"     ..XXXX.XX..X.           ....+++.                           ",
"   ..XXXXXXXXXXXX*.        ..%%&&...                            ",
"  .XXXXXXXXXXXXXX*.       .%%%%&&&&.                            ",
" .XXXXX*****XXXXX.       .%%%%&&&&&.                            ",
".XXX***.....**..X*.      .%%%&&&&&&.  .                         ",
".X***..     ..OO..     . .%+&&&&+&&. .%.                        ",
".X*..        .OO.     .%..+$+&&+$+&..%%%.                       ",
".*.          .OO.    .%%+.+$$++$$+&.+%%%%.                      ",
".*.           .O.     .++.%++&&++&&.+++..                       ",
".*.           .O.      .+.%%&&&&&&&.++.##.                      ",
" .            .O.       ..%.%.&.&.&.+. .##.                     ",
"              .OO.      .#.%.....&&..   .##.                    ",
"               .O.     .##.%.&.&.&.%.    .##.                   ",
"               .O.     .#...%&&&&.%%.     .#.                   ",
"               ...    .##..+.%&&.o.%.     .#.                   ",
"              .@@.. ..##. .+....oo.%.     .#.                   ",
"             .@@.=@.###.  .+.oooo.%%.    .@..                   ",
"             .@.@=@.#..   .++.oo.%%%.    .=@.                   ",
"              .......     .++.o.%%%.    .@@=.                   ",
"               .O.         .+%.%%%%.    .@@@.                   ",
"               .O.        .#.%%%%%..     .@@.                   ",
"               .O.       .##..+.+.##.     ..                    ",
"               .O.      .##.  . . .##.                          ",
"               .O.      .#.        .#.                          ",
"               .O.      .#.        .#.                          ",
"              .OO.      .#.        .#.                          ",
"              .O.       .##.      .##.                          ",
"              .O.        .#.      .#.                           ",
"              .O.        .#.      .#.                           ",
"             .OO.        .#.      .#.                           ",
"             .O.         .#.      .#.                           ",
"              .          .#.      .#.                           ",
"                          .        .                            "
};
