/* XPM */
static char *_613653655715[] = {
/* columns rows colors chars-per-pixel */
"64 64 22 1 ",
"  c black",
". c gray13",
"X c #1A237E",
"o c #D32F2F",
"O c #FF5252",
"+ c #AFB42B",
"@ c #FFCA28",
"# c #FFEE58",
"$ c #01579B",
"% c #3949AB",
"& c #0277BD",
"* c #1565C0",
"= c #0288D1",
"- c #0091EA",
"; c #00B0FF",
": c #FF8A80",
"> c #82B1FF",
", c #90CAF9",
"< c #80D8FF",
"1 c #BBDEFB",
"2 c #E3F2FD",
"3 c white",
/* pixels */
"                                                                ",
"                                                                ",
"                                                                ",
"                                                                ",
"                                                                ",
"                                                                ",
"                                                                ",
"                                                                ",
"                                                                ",
"                                                                ",
"                                                                ",
"                                                                ",
"                                                                ",
"                                                                ",
"                                                                ",
"                      %++                                       ",
"                    %%###+                                      ",
"                   %%#####+                                     ",
"                  %%######+                                     ",
"                 %%#######+                                     ",
"                %*%######+                                      ",
"               %*%#######+                                      ",
"               %*#######+                                       ",
"              %*%#######.                                       ",
"              %*%######.                                        ",
"             %*%@######.                                        ",
"             .*%@@####.++                                       ",
"            .*%@@@###.###+                                      ",
"            .*%@@@@#+####+                                      ",
"            .*%@@@@######+                                      ",
"            .*%@@@@#####+                                       ",
"            $$$$$@@###.+                                        ",
"          $.<<<<<$$...                                          ",
"        $&<<<<<<<<;$                                            ",
"       $<<<<<<<<<<;;$                                           ",
"      &;<<<<<<<<<<;;;$                                          ",
"     $;;;<<<<<<<<;;;;;$                                         ",
"    $;;;;;;<<<<<;;;;;;;&                                        ",
"   $;,222,;;;;;;;,222,;;&                                       ",
"   $;2*;*2;;11;;;2*;*2;;&                                       ",
"  &;;2*2*2;1111;;2*2*2;;;&                                      ",
"  &;;2*2*2;11111;2*2*2;;;&.$&                                   ",
"  &;;2***211111112***2;;;$<<<&                                  ",
"  &;&2===211111112===2&;;$<<<<&                                 ",
"  $;&2222211$1$1122222&;;.<<<<<$                                ",
"  $;**222111111111222**;$<<<<<<<$                               ",
"   $***1111XXX$$111****;.$$<<<<<<&                              ",
"   .>**111XoooOOX>1***>.***$<<<<<&                              ",
"    .>>>>>Xoo::::$>>>>.*****$<<<<<$                             ",
"     .>>>>>$$$$$$>>>>.$*****$<<<;;$                             ",
"      $&&>>>>>>>>>>..<$*****$<;;;;$                             ",
"         $$$..>>$..<<<<$****$;;;;;$                             ",
"          .-;>>>>;-.<<<<$$;;$;;;;;.                             ",
"         .;;>>>>>;;<$;;;;;;;.;;;;;.                             ",
"         $<$>111>>;<$;;;;;;.;;;;;;.                             ",
"        .<<$11111>;<<$...$$;;;;;;$                              ",
"        .<.1111111;$<$;;;;;;;;;;;$                              ",
"        .<.1111111;.;$.;;;;;;;;;$                               ",
"        .;$.111111.-;$<.;;;;;;;.                                ",
"        .;;<.111>.<;;$<$;;;;;;$                                 ",
"        $;;.$11>>>.;;$$;;;;;$.                                  ",
"       $.$;.;$>>>>.;$<...$$$                                    ",
"      $<;$;<.$>>>$<;$;;;;.                                      ",
"       ...$$. $$$.$$.....                                       "
};
