/* XPM */
static char *_0fe03029420422ab8f8978216fed48bKWGjTCWrLcry8pTG[] = {
/* columns rows colors chars-per-pixel */
"64 64 256 2 ",
"   c #1B1A13",
".  c #291B0C",
"X  c #241E16",
"o  c #331E16",
"O  c #30160A",
"+  c #2C241B",
"@  c #272418",
"#  c #332A1C",
"$  c #3B2A1D",
"%  c #382516",
"&  c #352914",
"*  c #1D2226",
"=  c #2C2B24",
"-  c #282725",
";  c #332C23",
":  c #372C27",
">  c #3C332B",
",  c #383428",
"<  c #3A3B36",
"1  c #2C3132",
"2  c #1D1F20",
"3  c #462A18",
"4  c #522C18",
"5  c #49331C",
"6  c #57361B",
"7  c #4B250B",
"8  c #6B3A19",
"9  c #462C23",
"0  c #443423",
"q  c #4D3423",
"w  c #43352B",
"e  c #433B2B",
"r  c #4B3B2C",
"t  c #4A3829",
"y  c #553926",
"u  c #443B32",
"i  c #4C3D33",
"p  c #463B39",
"a  c #553D35",
"s  c #623A23",
"d  c #6D3C2C",
"f  c #39413A",
"g  c #69441C",
"h  c #49432E",
"j  c #594429",
"k  c #4C4434",
"l  c #4D443B",
"z  c #4B4C3B",
"x  c #464437",
"c  c #534334",
"v  c #5B4A33",
"b  c #5B453B",
"n  c #534B3C",
"m  c #5B4B3C",
"M  c #564637",
"N  c #59533B",
"B  c #4D513A",
"V  c #6A442C",
"C  c #66472A",
"Z  c #78492B",
"A  c #6B512D",
"S  c #654C33",
"D  c #644C3C",
"F  c #6A4C3A",
"G  c #674634",
"H  c #7C4C34",
"J  c #764A37",
"K  c #64533D",
"L  c #6C533C",
"P  c #6C5A3D",
"I  c #675637",
"U  c #745234",
"Y  c #74533A",
"T  c #7C553B",
"R  c #7C5B3C",
"E  c #785737",
"W  c #77512B",
"Q  c #76603C",
"!  c #6A603B",
"~  c #3C4849",
"^  c #3E4F52",
"/  c #4C4B43",
"(  c #464946",
")  c #544D42",
"_  c #5C4D43",
"`  c #584C4A",
"'  c #4B5348",
"]  c #535343",
"[  c #5B5444",
"{  c #5C5944",
"}  c #55554A",
"|  c #5C544B",
" . c #5D5B4B",
".. c #545A4E",
"X. c #484E52",
"o. c #4B5956",
"O. c #5A5452",
"+. c #5C5C54",
"@. c #5B5C5B",
"#. c #545857",
"$. c #664C43",
"%. c #645444",
"&. c #6C5344",
"*. c #645B44",
"=. c #6B5C44",
"-. c #64554B",
";. c #6C564B",
":. c #645C4B",
">. c #6C5B4B",
",. c #735443",
"<. c #735B44",
"1. c #7C5C44",
"2. c #745B4A",
"3. c #7C5D4B",
"4. c #785547",
"5. c #635C54",
"6. c #6B5D53",
"7. c #685C5A",
"8. c #755C55",
"9. c #7B4E42",
"0. c #5A664A",
"q. c #5A6557",
"w. c #4D614E",
"e. c #6C6345",
"r. c #6C624C",
"t. c #67664A",
"y. c #736344",
"u. c #73634B",
"i. c #7C634C",
"p. c #7B6B4C",
"a. c #786747",
"s. c #6C6353",
"d. c #6C6B54",
"f. c #63635C",
"g. c #6C645A",
"h. c #6D6B5B",
"j. c #646657",
"k. c #746353",
"l. c #7C6453",
"z. c #7D6C54",
"x. c #746B5C",
"c. c #7A6B5C",
"v. c #776659",
"b. c #6A7156",
"n. c #7C715B",
"m. c #787358",
"M. c #7A704D",
"N. c #4C5D64",
"B. c #6C5D64",
"V. c #4B6467",
"C. c #5A6667",
"Z. c #5B7072",
"A. c #686765",
"S. c #736C63",
"D. c #7C6C64",
"F. c #766B6B",
"G. c #697367",
"H. c #7C7365",
"J. c #7B746A",
"K. c #777668",
"L. c #797774",
"P. c #6B7175",
"I. c #313D46",
"U. c #934C1B",
"Y. c #874C29",
"T. c #8A562C",
"R. c #96582A",
"E. c #8B5C33",
"W. c #83543C",
"Q. c #845A3C",
"!. c #8A5C3C",
"~. c #855435",
"^. c #955B33",
"/. c #965A38",
"(. c #874D33",
"). c #A45C29",
"_. c #A15E38",
"`. c #8C633C",
"'. c #876537",
"]. c #94633B",
"[. c #9B643C",
"{. c #9D693E",
"}. c #966436",
"|. c #A6632D",
" X c #A56737",
".X c #AF7636",
"XX c #835B44",
"oX c #8B5D43",
"OX c #835C4A",
"+X c #875747",
"@X c #955C44",
"#X c #875D53",
"$X c #8A574A",
"%X c #8C6443",
"&X c #83634C",
"*X c #8C644A",
"=X c #83694B",
"-X c #8C6A4C",
";X c #856644",
":X c #936443",
">X c #9A6543",
",X c #9C6B43",
"<X c #936B4C",
"1X c #976949",
"2X c #8A714B",
"3X c #93724C",
"4X c #846551",
"5X c #846B54",
"6X c #846C5B",
"7X c #8A6858",
"8X c #966A54",
"9X c #847354",
"0X c #8C7354",
"qX c #85735B",
"wX c #8B745C",
"eX c #8A795A",
"rX c #977758",
"tX c #A46A46",
"yX c #A77648",
"uX c #A77957",
"iX c #B4774F",
"pX c #856C65",
"aX c #847463",
"sX c #8B7464",
"dX c #84746B",
"fX c #8C756B",
"gX c #887B68",
"hX c #937463",
"jX c #947B63",
"kX c #977968",
"lX c #847974",
"zX c #957975",
"xX c #946E66",
"cX c #A57D6D",
"vX c #A05C42",
"bX c #7A836C",
"nX c #99815C",
"mX c #B68457",
"MX c #B28555",
"NX c #988568",
"BX c #8B8578",
"VX c #928B7B",
"CX c #998778",
"ZX c #8B856B",
"AX c #A68667",
"SX c #A68878",
"DX c #AE8F73",
"FX c #717B82",
"GX c #887D89",
"HX c #878286",
"JX c #988B83",
"KX c #9A9388",
"LX c #938B94",
"PX c #A59488",
"IX c #ABA29E",
"UX c #C7B194",
/* pixels */
"J.g.j.A.P.g.b jX2XeXn.b.Z.Z.bXZ.V.Z.V.V.V.V.#.q.s.%.L 2.b pXa a B.7.#.../ ' @.o.#.#.@.o.C.5.f * p pXB.L.5.| -.6.2.k.k.g.S.c.c.g.",
"F.S.G.Z.P.A.:.NX3XY C t.G.A.L.V.C.A.@.A.f.q.q.g.u.1.XX3.q D d $.8.O.@.f.X.#.A.( O.B.B.f.g.g.X.* p pXB.P.#.B.F.A.A.J.S.F.A.D.S.x.",
"f.h.N.V.FXA.p eX=X7 E NX5X=XaXk.<.i.=X3.l.2.u.&.D D G a + &.9.G 8.-.7.8.7.lX7.8.D.pXk.-._ >.; 1 ` pXF.P.P.A.B.B.7.B.@.O.B.F.A.A.",
"# & $ < ) < > P 0 . 6 j 5 5 h $ & $ 3 $ 0 % % . % $ # o > dX3.4 y q q q b 9.9 q a u # X - = - 1 X.B.@.B.j. .5.| ` p < 1 < ( p p ",
") } 8.4.&.D.6.m 6 wXl.F z.3.c &.$._ = * < p k *.-.%._ -.6.fXsXc.$.7X,.G 9.$.9.8.9 O.L.j.A.Z.V.V.Z.FXP.bXbXm.aXqXzX-.< A.f.| O.( ",
"( / X.O.O.O.| k.8.c.7.B.dXD.D.H.pX8.w 7.VXKXIXLXJXlXdXA.S.D.D.K.F.JXfXc.8.+XxXxXV 6.VXdXS.A.N.N.N.N.@.7.x.b.g.fXfXp - A.@.O.@.~ ",
"I.X.X.X.O.` @.F.F.O.#.@.S.7.B.pXk.;.9 l.CXJXLXLXLXLXGXC.h.v.x.h.g.pXgXx.2.$XxX8Xd %.S.H.g.@.o.o.@.C.f.7.m.K.L.dXJ.< - @.@.#.X.I.",
"( X.X.| O.O.@.A.C.#.O.7.v.>.-.8.-X&X, aXCXGXLXGXHXLXGX@.t.:.c.x.x.pXpX-.2.>XxX7Xy M GXD.H.S.q.@.B.P.f.7.h.BXHXF.F.l 1 7.( f ^ I.",
"( X.X.#.#.#.C.@.#.@.O.-.k.6.6.&.H G y SXVXHXGXlXJXHXGX#...j.b.b.S.zXv.8.NXyX-X9.4 n L.F.BXL.P.A.P.FXP.F.G.L.FXF.J.p : O.| / X.~ ",
"@.#.#.N.A.A.f.+.O.O.| -.l.3.&.4.Z 9.m k.zXIXKXKXlXlXlXq.N m.m.m.aXCXsXsX3X`.L $.3 l BXL.L.L.L.A.L.bXBXF.x.dXJ.lXD.a : 7.g.5.q.#.",
"< < < < ( ` M 0 + , = = & @ + # % $ ; k / l l l > > x ; = z h x u _ n k > # + o X @ @ 2 2 @ - @ - = - - + + + + ; : - / 1 @ - 1 ",
"; 1 ; : t . X @ e i M ) k c z r c N s.bXH.[ M u 3 % o & 0 < e ; ; + ; w > > : ( / X.( } 7.O.< < p G G C y q y a i a ` ;.b i e > ",
" X X}.|. Xy ` PXUXDXAXNXNXNXnXnXnXNXDXDXeXjXAX0XrXrX%XrXjXb lXsXfXfXkXfXCXCXdXKXIXJXKXPXJXJX] / rX,X>X/.!.T ,XtX8X1X:X%XoX-X<X1X",
",X[. XU..X8 3 PXNXeXeXeX0X3X9XM.ZX9XM.2Xi.i.sX9X0X8X;X<X8X% %.qXD.fXaX6XpXpXlXJ.lXBXBXBXdXVXJ.= G ,X].!.T R [.}.}.}.T.U.U.E.{.tX",
"{.}.]. X Xg 6 rX3X2X9X9XqXqXqXm.9X9X2X3X-X0X0X2X*X<XJ 8XXX+ 5.dXJ.gXc.c.D.g.:.[ S.K.J.J.gXgXVX, X XX:X~.!.`.{.{.[.}.T.R.T.`.{.{.",
"{.'.yXtXR.}.g 3X'.rXhXkXqX0X9X9X9X2X%X:X].].`.E.].].]./.Z % | BXx.aX5Xn.d.:.} z +.S.K.K.S.aXZX,   a +XoX%X,X,X,X,X,X].}.}.{.{.,X",
"{.}.{. X|.R.8 *X%X*X8XrX%X].].!.:X].[._.R.).).).).).U.U.@Xo c kXqXjXi.aXL.f./ ..j.G.L.K.BXfXpX1 2 b XX%X:X,X].}.].].{.].{.{.,X{.",
"{.].{.}.^.^.H !.].>X[.,X X X X|. X X|.R.8 U.).).U.U.U.Y.d o + c z.l.;.n 5.x / q.L.L.K.G.BXA.O.* 2 w P y.a.%X'.].}.'.`.`.].:X:X,X",
"y 5 & % 7 6 3 y 6 4 6 4 4 4 7 6 6 5 7 % O q 6 4 7 3 3 $ % - 1 < ` , = 2 - X - @ ; ; e : @       2 - - + > c j C j y 5 % & $ , 5 ",
"N k N S 4.I K aXu.$.D K 4.&.>.c.> # i _ -.-.v.8.8.D.dXS.pXS.J.dXJXL.K.K.lXS.F.x ( x.sXl.6.8.;.8.8.6.8.fXzXfXfXc.pXsXM F a.N v v ",
"! 9XjXrXjX0X5XNXeXeXrXNXkXwXkXhX[ u aXsX4Xu.k.l.c.aXc.n.m.t.M.b.d.b.t.m.K.S.ZXx f.PXAXSXGXcXxXxXxXxXxXGXdXfXJXzXGXPX-.2.a.m n N ",
"y.a.a.9XeX9XM.p.u.u.n.H.x.5X:X*Xt + -.u.c.e.t.t.j.b.d.d.b.b.b.0.0.t.0.0.0.q.gX, O.zXxXJXdXdXfXB.F.F.D.F.7.dXdXc.xXxXw k.-X<.N Q ",
"y.Q Q y.M.m.d.m.j.d.h.K.m.qX8XW.o > x.v.m.t.0.q.q.G.q.q.b.G.b.q.q.0.0.w.B q.H.< ( c.4XzX7.B.dXg.g.s.g.c.D.4X5X6XkXxX0 z.M.u.e.a.",
"z.M.p.n.n.H.b.gXm.c.n.n.c.5X8XH 9 ] fXl.n.t.t.b.q.K.0.b.b.bXb.b.0.0.b.t.t.d.qXu = | aXk.6.D.D.s.x.s.s.aXpXc.6XaXhX7Xw l.0X5X5X9X",
"aXaXjXpXdXfXkXzX6XhXrX4X-XrXuX8Xq ] 6Xi.M.e.u.d.r.c.k.x.z.eX9XeXZX! z.eXa.sXp.e @ e.gXk.v.dXD.J.:.6.8.aXn.l.5XM.sXwXe =.2X0XqXaX",
"} [ %.t c 2.&.L G F V 3 6 Z g C % : i r e , e k M m %.k i e i { h . 0 M m m & @ * l h $ > p < : + # > ; ; , ; X # $ X ; y m v _ ",
"x x > = X @ . # % X o # : : : ; 1 : : u ] } } :.-.b M < w ; ; : = 1 : ; 1 : + = = x z ] > : , < < < ~ < f < f x ( ( ~ X./ ( ( x ",
"S.S.g.) u fXSXkX6X6XwXfXfXjXzXgXpXD.xXkXSXDXVXCXkXDXhX_ 7XhXAXSXCXPXJXCXCXPXCXZXNXCXNXSXzXfXZXx.JXPXKXJXBXVXVXKXKXHXJXJXCXVXBXD.",
"aXqXl.D l D.zX9.OX3.l.3.5X3.,.R L <.5X7X=X=X9Xi.<X8X4X% 1XiXmXmXAXuXAXAXjXkXAXjXnXrX2Xa.uX3XrXt h.kXz.i.P e.M.b._ -.k.i.=.p.l.z.",
";.&.%.m l x.v.D 3.8.<.<.<.<.P P <.2.u.M.u.M.t.I i.rX4X7 /.mXiXmXuXrXkXrXrXkXjXeXNXnX'.A 1X3X;X0 s.jX6X6XP p.y.! M | 6.2.2.r.>.>.",
"*.%.%.%.l D.c.2.2.3.i.<.,.,.y.=.=.2.=.t.0.0.0.N 2.jX8.3 @XmXmXmXMXAXrXNXNXjXNXfXeX0X2XrX3X0Xp.j c.nXl.k.e.a.i.2.l.8.7.;.6.6.>.;.",
",.&.&.;.l J.S._ ;.k.l.2.i.<.y.P u.u.e.e.M.M.t.y.&XkXi.3 iXiXiXmXAXuXrXZX9XgXgXaXqX0X0X-X-X3XQ M KXjX9.v.s.u.a.p.&X4X8.S.s.>.2.2.",
"U L ;.%.i J.7.M $.;.*.l.l.&.P <.j y u.y.p.=Xi.1.Y i.a y mXmXmXmXDXuXAX2X=XeX9XwXrX*X*XrX-X%XQ gXUXrX`.rX9Xa.;X;X3X1X!.<XE R E E ",
"j v M i u x.n l n ) :.:.%.>.r.{ h -.%.p.u.*.P *.k e , N 0X3X3X2X1.Y E v j F v F F 6 G F L C j K.G.G C C A F A v C g V y 5 j j C ",
">.n.J.VXlXJXJXBXJXBXVXVXVXZXBXK.n.n.NXCXZXbXZXKXBXL.VXZXZXM.y.u.r.s.{ [ l k t > : a M %.m -.2.d.c.6.&.b ) _ M b j q = - , k I *.",
"-.k.k.H.x.-.k.-.k.:.s.t.e.>.u.e.y.5 ;X2XM.p.m.H.c.u.d.M.e.e.t.u.d.t.s.b.j.} sX%.7.CX7X5Xz.eXqXa.9XeXc.n.aXH.D.pXxX8.) D.gXjXZXqX",
"n { } :.s.[ { ] :.t. .[ { *.*.P y.6 C =Xe.a.e.t.e.%.P P I N N } ] ' ] B B N i.t h NX=Xy.! a.! N ! y.P r.i.u.>.&.#X8.7.s.r.u.e.{ ",
" .' ] B } ] ] z z N N {  .[ %.>.a.b S a.z.p.e.e.r.K I R =.N B ' o.w.^ ~ B z $.w , CXM.y.t.M.N N ! *.:.r.r.u.=.<.8.6.b :.r.r.:. .",
"f.+.} 5.g. . .) j.| } :. .:.k.2.OXb I i.5Xi.p.u.e.S D L P [ ] ..V.o.^ ~ ~ x $.u > PXm.t.t.N N B { -.s.t.r.e.I U Y %._ k.s.r.:.j.",
"j.:.:.g.8.s.s.;.x.6.v.k.l.u.6X4XOXC L &X4X=X&Xi.v v I <.<.*.+.q.o.' ' z < u &.t { CXM.! N { N N 0.t.j.N K K I A 4.$.H.zXc.g.-.:.",
"b $.&.b 3.8.,.&.&.,.4.#X4.OX4XOXJ % ! u.e.e.I >.v c v v v n z < < = 1 1 = ; h $ K.z.N N h x x z ' B z h e x 0 a b b BXjXc.2._ b ",
"r r 5 y M ; . 9 9 q 9 y q q 0 5 3 $ 5 h h > e e u u e , = - # < x x ] B ] } *.s.G.r.N v k w u < 1 1 x / x B ] s.6.g.K.K c t i w ",
"*X<X:X3XxXw F i.'.=X1.rX8X:X;X1.=X0XQ =X2X9Xp.9X9X=.jXk.@.L.SXkXNXhXwX7X9X9X9Xz.m.aXl.<.a D 9.;.x f.VXr.b.K.t.m.wXa.y.2X5X0XrX3.",
"Q.%X!.Q.Z q AX1XT.{.tX[.[./.^.T.`.].'.'.'.Q a.A A E '.S ; dXNXY T Y XXT Z C S I y S C 3 O G 9.,.: | c.r j v j 6 A 3 6 Q W %XW.T ",
"XX!.Q.~.y 9 jX1XY.[. X/.^./.T.E.E.E.'.'.'.'.Q v Y E ~.T u aX5XJ G ,.#X9.J Z V G G J d 7 d uX$XJ 9 s.aX$.a j C V A 6 A Q.W H Q.Q.",
"OX`.W Q.s 9 jX%XY.>XvX/.^.^.T.^.R.}.`.`.Q '.A W H Y.T.E t #XOX9.J J +Xd Y.Z Y.H Z W Z Y./.(.H V 9 6.fXD G j C Z V Z W E E !.Q.Q.",
"Q.Q.H H q 0 wXW /./.tX/./.R.R.R.R.}.[.^.T.E A W W.Z Y.H 4 3.W.(.J d 9.J J Z H d V H ~.J J J d 9.t _ 6Xy c C V ~.Z Y.~.!.!.(.~.T ",
"T W Z T 4 q oX].tXtXiXtX_.[.E.}.|..X X X}.<X;X8X*XW.%XW.t 7X8XoX+X9.#X+X+X(.H J +X+XT H J J W.+X9 9 D q 6 F Y W.W.Q.~.@XW.Z W.H ",
"5 q y 5 o o y Z C V V s y C 6 4 y V s 6 6 j 5 5 3 % $ % X : 3 4 3 5 y 5 & 5 3 5 q 3 3 3 q q 4 9 - , M w + ; + % % % % 3 o % 3 % ",
"P m v a.z.%.a $ t h k u i > @ : > m e.S v v h , h h e e u t d 2.4.D I W P 5 5 Q.U F Y XX-X-X&X0XwXkXAXkXhXOXR ,.Y ~.J U E *.:.&.",
"a.Q ;XrXrX2X=X<.i.6X6XsXl.6X:.g.PXAX@X@X1X>X@X<X0X1X>X1X>X>X XtX XtX.XMXMXY.6 mXR./.DXiXyXuX>X,X,X1X%X`.,X1X>X,XtXyXuX8X8XG sX-X",
"W A A Q.E C C v S C G 4.&.4.&.` cXU.Y.@XuXvX(.(.!.E./.tX/.R.).U.U.U.|.)..X.X7 T._.SXDX7X4.4.7XXXOXOX9.-X-XXX&X4X*X8X8X#X8Xy A E ",
"T E A P I I S C C C U ,.2.$.8.6.cXd Y.$X@XY.8 Y./.(.!.1XW.(./.Y.).).|.)..XMX6 Z tXGXuX$X,.OXOXY OX-X*X<X;X-X=X-X&X+X$X#X7Xa W.T ",
"E W g E P I S C V d Y 4.;.a 2.v.8X7 (.8X#X(.W.$X@XoX$X1X/._.vXR._.|.|.|..XMX5 H (.7XW.@X!.!.`.Q.!.%X1X:X~.:X*X:X:X~.$X#XxXG W H ",
"W Z 6 A P P I D V V J &.$.G 4.fX+X8 vXzX#X#XxX8X@XtXuXtXtX XtX X X X|..X.X.X3 8X$X7X8X@X%X*X1.R y.a.-XR T 1X<X`.W./.$X8XhXy J R ",
"R T 6 U Q <.4.8.D G ,.2.8.4.4.sX$X/.$X#X8X#X8X@X@X@X^.}.}.R.R.). X). X X}.W y *XJ l.%XW.OX1.>.r.2.2.i.<.i.a.<.R T %X1XuXhX, C W ",
"$ 5 . % 3 $ ; # + % $ > , ; o % 3 3 5 y 6 6 y 4 y y 6 6 6 6 6 6 s s y 6 5 &.%.v 0 w q 5 v j k h e $ @ @ @ @ . @ . $ $ 0 , @ X . ",
"..' / x l [ m M m | 5.g.x.d.d.h.K.dXJ.gXlXgXn.S.c.-.} p.:X;X:XE.^.Z W :XuXnXnXrXmXnXuXMXMXAXAXrXrXh d.h.j.h.j.@.A.b.j.f.j.G.G.w.",
"q.q.+.] 7.CX5X6Xk.>.c.v.s.r.t.:.gXK.:.t.0.{ N r.k.t M DX.X.X X X X1X1X[.{.E.T.E.{.}. X|.|. XT.T.(.3 H Y &. ...q.G.Z.^ o.C.bXC.q.",
" ...[ a c gX>.N *. .} *.{ B B n }  .z B n z B { -.2.0 -X XE.XX-X8XkX0XXXQ.%XE E <X>XiX X[./.W.!.U 3 J 9.8.5.7.@.w.' B q.q.q.o...",
"*.N D v i lXk j.g.] ' } ' ( ( ~ ~ < ( ' ' ' ' ' ] ;.$ -X,XOXpXv.4XpX5XOXXX&X,.L OX8XuXtXW.$X1X=XN & J +X4.;.8.-._ %.[ 6.h.} { >.",
"-.N 6.i u g..  .h.} +.} } ( ( x < < ' z ' ' ] ' / $.$ -X/.7XlX6.k.4X4XW.XX1.2.=.#X8XuX8X+X7XuX7X> + J #X#XpXxX8.pX;.-.;.H.s.r.>.",
"OXl.OX%., -.v l.d.k.s.:. .[ ] / n k { } ..:.N [ ) $.3 G /.wXlXJ.c.zXqX1.;X&X=X3.#X8XuX8X$XrXcXrXb o W.vXcXcXSXkX#X#X7XkXkX7X7X&X",
"i.#X2.G # M i.k.K s.) ) { n z n k k n ) ] ] c x p $.+ 3 rX2.+.t.>.n.k.L 1.Y L b G +X1X+XF 1.OX4Xb = s (./.tX8X@X8XkXhXkXrX8X:XOX"
};
