/* XPM */
static char *faccf9c2d87b4142e9d33444eb296dbePexZBCIEYZGSKfuS[] = {
/* columns rows colors chars-per-pixel */
"64 64 200 2 ",
"   c #5C7D4F",
".  c #5F7750",
"X  c #5E7C51",
"o  c #607651",
"O  c #627B54",
"+  c #657E59",
"@  c #687E5E",
"#  c #56864D",
"$  c #59834E",
"%  c #558A4D",
"&  c #5B8D4E",
"*  c #5F904E",
"=  c #5C8552",
"-  c #578C50",
";  c #5A8C53",
":  c #5E8D5A",
">  c #5F9054",
",  c #5E915A",
"<  c #61814F",
"1  c #628C4E",
"2  c #63914F",
"3  c #628254",
"4  c #6B8353",
"5  c #648C52",
"6  c #6C8D52",
"7  c #63845B",
"8  c #6A825E",
"9  c #638B5C",
"0  c #698B5E",
"q  c #718D52",
"w  c #649253",
"e  c #6B9552",
"r  c #6F9854",
"t  c #62935D",
"y  c #6A965C",
"u  c #6E9959",
"i  c #729553",
"p  c #749A53",
"a  c #7B9D54",
"s  c #76945C",
"d  c #749B5B",
"f  c #7B9E5C",
"g  c #799753",
"h  c #7EA05A",
"j  c #6C8465",
"k  c #668E63",
"l  c #6C8D67",
"z  c #6D8C6A",
"x  c #728C6D",
"c  c #78896E",
"v  c #728567",
"b  c #649463",
"n  c #699564",
"m  c #6D9965",
"M  c #6B946B",
"N  c #6B996D",
"B  c #749C65",
"V  c #729B6C",
"C  c #789B68",
"Z  c #738D72",
"A  c #788C74",
"S  c #6E9A72",
"D  c #709774",
"F  c #739C75",
"G  c #799D74",
"H  c #7B927C",
"J  c #749D7A",
"K  c #7A9B7D",
"L  c #7A9374",
"P  c #7EA164",
"I  c #7CA16C",
"U  c #76A07E",
"Y  c #7EA27D",
"T  c #7AA174",
"R  c #83A155",
"E  c #82A25B",
"W  c #84967A",
"Q  c #89A667",
"!  c #84A56B",
"~  c #80A86A",
"^  c #87A568",
"/  c #83A574",
"(  c #89A773",
")  c #8EAA74",
"_  c #85A77D",
"`  c #97AE77",
"'  c #7D9B83",
"]  c #7F9E88",
"[  c #7AA282",
"{  c #7EA58A",
"}  c #819D8A",
"|  c #879C88",
" . c #869F90",
".. c #83A583",
"X. c #8BAA86",
"o. c #82A68D",
"O. c #86A98A",
"+. c #8CAA8C",
"@. c #8CA682",
"#. c #9BB183",
"$. c #87A392",
"%. c #8AA295",
"&. c #84A994",
"*. c #8CAC93",
"=. c #8EA69B",
"-. c #8AAC9B",
";. c #93AD93",
":. c #94B096",
">. c #94B19C",
",. c #9DB59D",
"<. c #A2B797",
"1. c #8EADA1",
"2. c #92ACA4",
"3. c #96AFA9",
"4. c #8EB1A4",
"5. c #93B2A5",
"6. c #9AB5A4",
"7. c #95B4AC",
"8. c #99B5AD",
"9. c #9FB8AC",
"0. c #97B4B2",
"q. c #9CB6B6",
"w. c #9CB8B6",
"e. c #9DB7B8",
"r. c #9EB9B9",
"t. c #A0B7A5",
"y. c #A5BAAB",
"u. c #ABBCAD",
"i. c #A8BCA7",
"p. c #A0B7B6",
"a. c #A3BAB5",
"s. c #AABEB2",
"d. c #A2BBBB",
"f. c #AABEBD",
"g. c #B3BFB7",
"h. c #B2BFBC",
"j. c #AFC1B3",
"k. c #A5C0BE",
"l. c #ACC1BE",
"z. c #B3C2BE",
"x. c #BBC4BE",
"c. c #C7C6BF",
"v. c #CAC9BF",
"b. c #A6BFC0",
"n. c #ADBFC0",
"m. c #A6C1C1",
"M. c #ADC2C2",
"N. c #B3C4C3",
"B. c #BAC6C3",
"V. c #B5C9C6",
"C. c #BCC9C6",
"Z. c #B7C7C8",
"A. c #BDCAC9",
"S. c #B5C8C8",
"D. c #C3C7C1",
"F. c #C3CAC5",
"G. c #CBCBC4",
"H. c #C3CDCA",
"J. c #CCCEC9",
"K. c #D1CEC7",
"L. c #D1CFC9",
"P. c #C6D0CC",
"I. c #CAD1CD",
"U. c #D3D1C7",
"Y. c #D5D4CD",
"T. c #D6D5CE",
"R. c #D6D5CE",
"E. c #D3D2CB",
"W. c #D9D5CB",
"Q. c #D9D4CD",
"!. c #D8D5CE",
"~. c #D9D6CF",
"^. c #DAD6CE",
"/. c #DCD7CF",
"(. c #DDD6CE",
"). c #D8D5CC",
"_. c #DDD8CF",
"`. c #DBD8CF",
"'. c #CDD4D0",
"]. c #D7D6D1",
"[. c #D1D7D1",
"{. c #D9D6D0",
"}. c #DBD7D0",
"|. c #D9D7D2",
" X c #DDD7D1",
".X c #DBD8D0",
"XX c #DBD9D2",
"oX c #DAD9D2",
"OX c #DDD8D1",
"+X c #DED9D1",
"@X c #DCD9D2",
"#X c #DCDAD2",
"$X c #DFDAD3",
"%X c #DED9D2",
"&X c #DEDAD5",
"*X c #DEDCD5",
"=X c #E0DAD2",
"-X c #E1DBD4",
";X c #E2DBD5",
":X c #E0DCD4",
/* pixels */
"E.E.E.E.I.I.E.].].].].#XXXXX#X#X#X`.oXoXoXoX].[.E.Y.T.T.Q.Q.^.Q.(.+X X(.=X=X=X(. X(.^.T.T.E.E.I.J.J.E.[.].`.].T.Y.T.T.E.E.E.E.U.",
"E.E.E.[.Y.Y.].XX#X+X+X*X;X*X;X:X:X`.`.*X#X`.oX`.XX`.R.XX(. X(.W.(.=X(. X=X=X=X=X+X=X X X}.}.].].].E.}.}.#X+X+X].[.E.E.E.K.I.I.K.",
"E.E.Y.Y.T.T.^.`.&X+X&X+X;X;X;X&X:X:X`.`.Y.U.U.).XXR.`.}.Q.Q.Y.Q.^.^.^.{.(. X=X=X(. X+X(.}.}.}. X}. X X;X;X&X&X|.XX].T.T.L.L.U.K.",
"I.E.T.T.T.T.}.+X+X+X+X+X(. X X+X`.`.`.W.U.P.F.F.I.I.E.E.L.J.G.G.G.H.F.J.L.Y.Y.W.W.U.W.U.W.W.Q.}.}.}.|.&X&X X#X;X&XXX`.R.U.E.U.I.",
"E.T.T.R.T.T.(.^.(.(.W.W.E.W.W.W.).).).[.[.U.x.x.C.F.P.G.v.D.D.D.D.B.D.B.F.F.J.L.J.v.G.K.G.G.G.W.W.Y.L.Q.}.Q.{.=X+XXXXX`.R.E.I.E.",
"E.T.Y.E.E.E.U.K.W.K.G.G.U.J.K.K.U.W.W.U.U.P.x.k.f.x.V.x.x.x.x.c.x.g.x.x.B.C.D.A.D.D.v.v.G.v.v.G.G.G.K.K.Y.L.Y.Y.XX`.`.+X].T.Y.E.",
"E.E.I.E.T.E.K.K.J.G.c.G.c.G.G.G.U.v.U.P.x.P.k.k.0.w.k.l.x.z.g.g.g.f.f.N.Z.N.M.M.B.D.D.D.c.D.D.D.G.G.G.G.K.L.L.L.E.W.W.W.T.E.E.Y.",
"I.E.E.E.E.J.J.K.v.K.G.c.c.c.G.F.v.P.x.x.P.z.k.w.w.w.w.k.k.f.f.f.f.p.d.f.M.m.m.m.m.l.N.l.z.B.F.D.G.G.G.G.G.L.L.L.U.E.I.K.U.W.T.I.",
"J.L.J.J.G.G.G.c.K.v.G.c.x.D.c.z.S.N.N.C.z.k.k.w.w.w.w.d.d.d.d.5.H 6.@ q.b.n.m.m.m.f.d.f.f.N.N.B.x.C.c.F.D.J.G.D.F.G.G.G.J.U.K.J.",
"J.F.G.F.G.D.G.G.D.c.x.z.z.g.g.f.k.m.l.k.k.9.w.w.w.w.w.r.d.d.d.=.O R 5 ) [ M m.m.b.f.f.k.f.M.l.f.l.l.l.x.D.H.H.F.B.B.F.D.D.D.F.G.",
"G.D.G.F.F.D.B.B.z.h.f.h.f.f.a.f.r.k.m.m.w.w.w.w.w.r.r.r.d.d.*.s q a i O & @ b.d.f.d.d.d.b.M.m.f.l.k.k.l.N.V.N.N.B.N.B.Z.D.D.D.D.",
"F.F.F.F.F.B.B.n.N.f.f.f.f.m.k.f.m.m.m.m.r.r.w.w.r.r.d.d.f.f.*.d g 1 i p f  .f.a.a.f.d.f.b.M.f.f.k.s.d.f.f.l.l.k.M.N.N.N.B.C.F.D.",
"D.F.F.D.B.B.N.B.S.M.N.m.M.M.M.m.m.m.S.m.m.d.d.d.k.d.m.m.n.M.b.a.% < R 2 1 c f.f.f.d.f.n.n.M.M.f.f.f.d.f.f.d.f.f.f.f.n.M.N.B.C.D.",
"n.D.D.n.B.N.N.N.S.M.M.M.M.M.M.m.m.m.m.m.m.M.b.b.k.m.M.M.M.n.y.F O 1 a 6 % O M 6.f.f.f.n.n.n.n.M.l.f.f.k.f.f.f.f.f.f.f.b.l.l.x.N.",
"n.n.n.n.N.N.N.N.M.M.N.M.M.M.S.M.S.m.M.M.M.m.n.M.M.M.N.M.M.N.h * R 1 1 q 2 %   J f.f.f.f.N.N.n.f.f.f.f.f.f.d.f.f.f.f.f.d.f.d.f.f.",
"n.n.n.n.N.N.N.N.M.M.m.m.M.M.M.S.M.S.M.M.M.M.M.M.M.M.S.M.M.M.>.O.z.n #   # & + 6.l.m.N.n.f.f.n.n.M.l.f.l.M.n.b.f.f.f.f.b.f.a.r.f.",
"n.n.n.B.n.N.n.B.N.N.l.l.l.l.M.S.S.M.N.n.n.n.N.n.m.S.m.N.M.M.l.N.9.B % $ # % M f.M.M.f.M.n.M.n.n.n.N.f.n.n.Z.n.n.n.M.f.M.f.f.f.f.",
"h.n.n.B.D.C.B.B.N.l.l.l.l.l.N.N.N.N.n.N.n.B.N.N.S.N.M.M.N.m.w.N t Q h n ; %   = a.l.m.l.n.M.M.n.n.n.n.N.n.N.n.n.m.n.M.f.f.f.f.f.",
"h.n.n.n.B.C.Z.N.N.l.l.z.l.z.N.N.S.N.N.n.n.n.N.N.N.N.N.N.m.[ T n Y N ; O n % - G f.n.M.l.-.w.N.n.n.n.n.N.n.N.N.n.N.f.f.f.f.f.f.n.",
"n.n.n.B.C.C.Z.B.N.N.N.V.N.V.V.V.Z.V.N.B.C.Z.B.n.N.N.M.N.N.l.l.j.V % ; 8 W & % # y R E e t *.n.N.N.n.n.N.N.N.Z.N.N.n.M.f.h.f.n.n.",
"B.n.Z.B.C.A.Z.C.C.C.V.V.A.A.A.A.A.A.Z.Z.B.B.B.n.N.N.z.M.M.9.G , ; > x | ` a 9 _ & - y _ N.N.N.N.N.n.n.N.N.Z.N.N.n.C.n.n.N.n.B.n.",
"C.C.C.H.F.C.A.H.A.P.P.H.P.A.P.H.H.H.D.C.Z.B.B.B.x.N.N.M.>.; t ; 9 - G z.` * = M X # % J *.s.Z.N.B.Z.B.Z.Z.Z.C.n.C.n.F.n.B.C.F.F.",
"F.F.H.H.H.I.H.H.P.P.P.H.A.P.P.P.H.H.H.Z.Z.B.N.B.z.V.M.z.z.y...X v ; V B.( e O ; c 7 % > t t ..N.B.C.C.Z.F.A.A.A.A.n.n.H.D.A.F.A.",
"H.H.H.H.'.I.'.I.I.I.I.P.H.P.P.P.P.P.H.C.B.C.B.Z.B.z.z.x.N.N.b _ x.n f E 2 e o ;.g.X n ; u.:.- J g.A.H.H.H.H.H.H.I.J.H.H.H.A.D.H.",
"H.H.H.I.I.I.H.G.P.P.P.F.F.F.P.A.P.A.P.A.V.A.A.C.Z.E f a <.u.X.m ; u.) d s 5 . u.i.  +.; G F.C.t.Z.P.I.P.P.'.P.P.I.I.I.H.H.H.H.H.",
"H.H.H.I.I.H.H.H.F.F.H.F.C.F.A.P.P.P.P.A.A.A.F.F.C.+.% 2 2 Q <.% P C.A.A.@.& G ;.;.o ;.o M A.H.P.H.P.I.'.I.H.'.P.I.'.'.'.I.H.H.H.",
"H.H.H.H.F.H.F.F.A.A.x.A.A.C.A.F.H.H.A.P.F.A.A.F.C.C.s.b % & y p #.J u p a & z.D.;.t s...w H.H.P.P.P.P.P.P.P.I.'.'.'.'.'.'.I.J.H.",
"H.F.H.F.F.F.A.D.x.x.V.V.V.V.V.V.A.A.Z.A.F.A.A.A.A.i...> e % % & - ; C X.% & y u.y.@.B.s.; j.J.P.P.H.H.P.P.P.H.P.I.'.'.I.I.H.H.H.",
"F.H.F.F.C.C.D.Z.z.z.V.V.z.V.V.x.Z.n.z.B.D.A.N.#.;.d 5 + d F % % % n ,.( & h P +.D.A.A.H.t.H.H.H.H.H.C.C.B.D.F.F.F.H.F.H.H.H.H.H.",
"C.Z.C.B.D.n.h.B.l.z.k.z.z.l.V.z.D.n.B.x.B.B.s.e $ T y.N.*.% % ; - % t e $ y 2 6.V.A.A.H.P.P.H.A.Z.C.Z.Z.x.B.B.B.C.C.D.H.H.H.H.D.",
"C.C.B.Z.B.B.N.n.j.k.l.l.V.N.z.z.h.z.B.N.B.B.n   x g.V.6.m ; $ Y n 9.:.$ = $ p ..V.V.A.A.A.H.A.V.B.Z.B.h.N.B.n.N.n.D.C.C.C.H.H.n.",
"C.B.C.C.n.n.n.f.k.l.j.k.k.z.z.l.n.c.B.B.B.N.B.h.N.B.B.% $ o $ >.- > t X 3 8 V ..6.V.V.Z.Z.V.B.N.N.B.n.n.n.B.B.B.Z.Z.D.n.C.C.H.H.",
"F.C.D.n.n.h.f.b.p.f.d.f.f.h.f.f.z.l.z.N.N.N.N.N.V.N.*.% O X % O.F % % L & 0 / % & 2 B V.M.M.N.M.f.M.l.M.M.M.S.S.M.Z.V.V.V.V.V.A.",
"Z.B.n.n.f.b.d.d.f.p.d.d.f.f.f.f.f.f.f.b.M.n.M.N.N.M.% $ A F $ X O.p e w p # p t Q G 5 F m.m.b.f.f.n.f.l.m.m.M.S.S.S.S.S.V.Z.B.Z.",
"B.n.n.b.d.d.a.d.d.p.d.d.a.d.d.f.f.f.f.f.f.f.f.f.f.w.# $ q.d.% . 1 6 1 & % % % ; b 0.S ; f.b.b.b.m.m.f.m.k.k.m.m.M.m.M.S.M.N.N.N.",
"f.n.d.d.p.d.d.d.p.p.p.d.p.d.k.m.f.d.d.f.-.% b &.a.J % Z J o.n % 2 w -.F % % = b % % F % w.a.d.d.d.k.f.d.k.k.k.m.k.m.m.m.M.N.N.N.",
"n.f.p.p.r.d.e.r.d.d.e.p.r.r.r.r.r.d.d.d.r.1.7 = o.t - d.S , -.b X ] d.- = % 7  .l . $ e &.r.r.r.r.r.r.r.r.r.r.r.d.k.m.m.M.M.N.l.",
"f.f.p.r.e.e.d.q.e.e.e.e.r.e.r.r.r.d.r.b.d.d.8.- = [ S b > R ^ 1 X e.K   x e 3 =.d.q.t 6 ; 0.k.r.k.k.r.k.r.r.r.r.r.d.d.m.m.M.f.f.",
"d.p.d.r.p.r.r.e.d.r.e.e.e.e.e.e.r.r.r.8.{ F S J $ N ; ; w r a   ' o.$ . 3.2 O 2.d.p.d.} - t 0.k.r.k.r.r.r.r.r.r.d.r.b.d.d.f.f.f.",
"d.d.d.d.e.r.r.d.e.e.e.r.r.0.e.e.r.0.J w a O = 9 e I 0.J % h * % ; % . j d.& . 2.d.r.d.r.r., ; b.k.r.r.r.r.k.k.r.r.d.d.d.r.d.d.d.",
"p.d.d.p.e.e.p.r.r.r.e.0.r.r.e.e.r.n % o 8.V s = 5 y N r T % % &.- $ 3 b t t . [ r.r.d.r.d.e.' r.k.r.r.k.k.r.r.r.r.d.a.d.e.q.d.d.",
"d.e.d.e.p.r.e.r.q.r.e.r.q.e.r.r.! ; U 6.B 1 4 X = ; - > n $ F N % o ; N J f 4 - [ r.p.d.r.b.r.k.d.r.k.r.r.r.r.r.r.d.d.q.e.e.e.d.",
"d.d.d.d.e.e.e.r.e.r.r.e.e.r.e.r.N 8 -.= 3 [ 5.q.w b ; t $ X : & p a t p X.8.: - , 3.d.d.d.r.d.d.d.k.r.k.r.r.r.w.r.r.w.q.q.r.d.d.",
"d.d.d.d.e.e.r.e.e.e.r.r.r.r.r.{ F &.> = } d.d.8.p 8 E 2 X z j # t r w.M , ..e., - &.d.r.d.d.d.d.d.r.r.r.r.r.w.r.r.d.d.q.a.r.p.r.",
"d.d.d.r.e.e.e.e.e.r.r.r.r.r.r.1.3.: : 0.d.r.k.h 5 z ! & . 0.z $ H a / r.: p 0.w.- ; r.r.r.d.r.d.r.d.r.r.r.w.w.r.d.d.d.q.e.d.d.d.",
"p.d.e.e.e.e.e.e.r.e.r.r.r.d.r.d.0.= &.r.d.b.k.e X ] , = D r.M t r.; h r.K - N k.r.0.k.r.r.r.r.d.r.r.r.w.w.q.q.r.w.e.q.q.e.p.d.w.",
"d.e.r.e.e.0.q.e.e.r.r.r.r.r.d.r.J @ k.r.k.r.k.- . 1.- X 4.r.N b r.t h r.q.N 1.r.r.r.r.r.d.r.r.r.r.w.w.q.q.q.q.r.q.q.q.q.q.d.p.d.",
"d.e.r.e.e.e.e.e.e.e.r.r.b.r.d.4.N  .r.b.r.r.r.% : P # X r.k.7 k r.t y r.r.[ &.r.k.k.d.d.r.r.r.r.q.q.w.q.q.w.q.r.w.q.q.d.e.q.q.d.",
"p.p.r.r.e.e.e.e.e.e.e.r.r.r.r.0.4.r.k.r.k.r.7.% S 2 $ l r.r.J t r.M J q.e.-.J r.r.r.d.d.r.r.e.e.q.q.q.w.w.q.r.e.e.r.w.d.d.r.p.d.",
"d.e.e.e.e.e.e.0.w.0.r.r.r.r.r.r.r.k.k.7.b { k.n { % X 2.d.r.w.n / D b m [ 4.-.r.k.d.r.r.r.e.e.e.q.w.q.w.q.d.r.a.r.q.r.q.e.d.e.d.",
"d.e.e.e.w.e.e.e.r.q.r.r.r.k.r.k.k.r.r.O.u u Y r.Y 2 X 0.5.{ B R 5 O X B V { 5.r.r.r.r.r.r.e.e.0.q.q.w.w.r.w.d.r.d.q.a.d.r.p.p.d.",
"e.e.q.e.w.0.e.e.w.q.e.e.r.r.r.r.r.k.0.-.U * - w.m 2 X n n d e y M n % # # - d { 4.7.r.r.e.r.e.e.q.q.q.d.r.d.q.d.w.e.e.d.r.e.d.e.",
"p.p.r.e.e.e.e.e.0.r.r.r.r.r.r.r.6.P m k 7 , p r > % X k @ b - w w N F : = : + k S { r.r.e.e.e.e.q.q.p.d.r.d.p.q.e.p.e.a.r.e.r.p.",
"d.e.e.e.e.e.e.e.r.r.r.0.r.r.r.4.C B 0 b 8 = * R N & .  . .- : X 5 B : _ r.r.r.r.r.r.r.r.e.e.e.e.q.q.q.e.r.e.q.d.e.e.q.e.d.r.r.d.",
"r.e.q.e.r.e.e.r.0.r.0.r.r.r.r.V n 9 x 5.B p h I B 2 X 3.q.% G ] ; y z e , 4.r.r.r.r.r.r.b.e.e.e.q.r.q.d.r.e.q.q.q.q.q.e.r.r.r.d.",
"e.r.e.e.e.r.r.e.r.w.r.0.r.k.{ b [ w.d.[ ; % ; N l %   =.1.% 1.k.N - C =.- - 4.r.r.r.r.r.r.r.r.e.w.w.e.r.p.d.e.q.q.w.r.w.r.r.e.e.",
"e.q.e.e.e.b.r.r.r.w.r.0.r.r.0.0.r.r.0.h % = m b Z % X @ 0.% r.r.8.O e w.7.X F r.r.b.r.r.r.r.e.e.e.e.e.e.e.e.e.q.q.r.r.r.q.w.e.e.",
"q.q.e.e.r.r.r.r.r.r.r.r.r.r.r.r.r.r.V u = K E 9 { - # . 0.- r.r.r.S N w.r.r.r.r.r.r.r.r.r.r.e.e.q.q.q.e.e.e.e.q.q.q.r.q.r.q.q.e.",
"q.q.e.e.e.r.r.r.r.r.r.r.r.r.r.0.r.0.- b 7 r.b X { m % . ] { e.r.k.-.N k.r.r.r.r.e.r.b.r.r.r.e.e.q.q.q.q.e.e.e.q.q.q.q.r.r.e.e.r.",
"e.q.e.e.e.r.e.r.r.w.r.r.r.r.r.r.r.D : X r.r., = q.*.%   + r.b.r.r.r.0.r.r.r.r.r.e.e.e.e.r.r.e.e.e.q.q.0.q.e.q.q.q.q.q.q.r.e.e.e.",
"q.q.q.q.e.e.e.e.e.r.r.e.r.r.r.r.e.S &.2.k.r.S J r.r.- % o ' e.r.r.m.r.r.r.r.r.r.e.e.r.b.e.e.e.e.q.q.0.q.q.q.e.q.q.q.q.e.e.e.p.e.",
"e.e.q.e.e.e.e.e.r.r.r.r.r.0.0.r.e.z ] r.r.r.r.r.r.r.' %   . 2.e.r.r.r.r.r.r.r.r.e.e.e.r.e.e.e.e.q.q.0.q.q.q.q.q.q.q.q.q.e.e.p.e.",
"e.e.0.e.e.e.e.e.e.r.r.r.r.r.r.r.r.r.r.r.r.r.r.r.r.r.r.w #   + 4.r.m.r.r.r.r.e.e.e.e.e.e.0.e.e.0.e.e.e.0.q.q.p.q.q.p.e.q.q.e.d.e.",
"q.e.q.0.e.e.0.r.r.r.r.r.r.r.0.r.r.r.r.r.r.r.r.r.r.b.d.E - - o b r.r.r.r.r.e.e.e.e.e.0.0.0.0.0.0.0.0.0.0.0.p.0.0.p.q.q.p.q.q.e.e."
};
