/* XPM */
static char *ebafbc6a29404649fc14029f0e816adaRxj05SCob2pMqtZG[] = {
/* columns rows colors chars-per-pixel */
"64 64 213 2 ",
"   c #000000",
".  c #0B0606",
"X  c #150D0C",
"o  c #180F0D",
"O  c #1E1311",
"+  c #310A08",
"@  c #260D12",
"#  c #251715",
"$  c #2D1818",
"%  c #352521",
"&  c #4C050A",
"*  c #490B0B",
"=  c #550504",
"-  c #5A0106",
";  c #52060D",
":  c #5D020B",
">  c #440411",
",  c #451A13",
"<  c #4C1915",
"1  c #5C1318",
"2  c #640006",
"3  c #6B0103",
"4  c #65010C",
"5  c #6D010C",
"6  c #720103",
"7  c #7D0105",
"8  c #74010B",
"9  c #7C010B",
"0  c #7D0C0A",
"q  c #650213",
"w  c #6C0211",
"e  c #770112",
"r  c #7B0211",
"t  c #7D1111",
"y  c #482617",
"u  c #5B2C1D",
"i  c #61230E",
"p  c #462B29",
"a  c #562E23",
"s  c #5B3328",
"d  c #6F2628",
"f  c #693B28",
"g  c #743D2A",
"h  c #6A473A",
"j  c #794434",
"k  c #7A5447",
"l  c #7C5A51",
"z  c #820105",
"x  c #840309",
"c  c #8A040B",
"v  c #8B0A09",
"b  c #95050B",
"n  c #930A0C",
"m  c #94150F",
"M  c #880812",
"N  c #920B15",
"B  c #990E10",
"V  c #811A15",
"C  c #B50E0A",
"Z  c #AF0F16",
"A  c #B70B18",
"S  c #A41B1C",
"D  c #B11212",
"F  c #85230D",
"G  c #892417",
"H  c #911E25",
"J  c #842521",
"K  c #A53B3F",
"L  c #B23331",
"P  c #DD1807",
"I  c #DE170B",
"U  c #C60F18",
"Y  c #C41517",
"T  c #DE1610",
"R  c #DA1B13",
"E  c #D8141A",
"W  c #E3140E",
"Q  c #E61913",
"!  c #E91916",
"~  c #FB1F17",
"^  c #F21E1C",
"/  c #DC2016",
"(  c #E52414",
")  c #FC2415",
"_  c #F5261B",
"`  c #FC241B",
"'  c #FD2A1D",
"]  c #DA1823",
"[  c #F81D24",
"{  c #CB2B2E",
"}  c #DF2321",
"|  c #DD2C22",
" . c #F32121",
".. c #FC2425",
"X. c #F42B21",
"o. c #FC2A24",
"O. c #FA2229",
"+. c #FE2A2B",
"@. c #E1362F",
"#. c #F62430",
"$. c #894F36",
"%. c #8D5538",
"&. c #97573A",
"*. c #945B3E",
"=. c #A15A39",
"-. c #845A47",
";. c #925C43",
":. c #945F49",
">. c #A75F4B",
",. c #AF5552",
"<. c #85604E",
"1. c #91624B",
"2. c #986449",
"3. c #8F6A5B",
"4. c #9C6754",
"5. c #966958",
"6. c #A7684A",
"7. c #AA6C4C",
"8. c #A9724D",
"9. c #A96B54",
"0. c #B36D5C",
"q. c #AC7654",
"w. c #BA7757",
"e. c #B4735C",
"r. c #B47A5E",
"t. c #A77567",
"y. c #AC7D62",
"u. c #AE7B6C",
"i. c #B67C68",
"p. c #CD4A4C",
"a. c #EB5454",
"s. c #C47C59",
"d. c #CB7C5C",
"f. c #D3616A",
"g. c #CA7E63",
"h. c #D67E74",
"j. c #ED686D",
"k. c #B5866D",
"l. c #BD856D",
"z. c #B98876",
"x. c #C8805A",
"c. c #D38B5F",
"v. c #C58362",
"b. c #C98769",
"n. c #D1876F",
"m. c #D6956D",
"M. c #C68A71",
"N. c #CC8973",
"B. c #C88875",
"V. c #C98E7C",
"C. c #D58A79",
"Z. c #CD9475",
"A. c #C3927E",
"S. c #CA927A",
"D. c #D29273",
"F. c #D89778",
"G. c #E29D7A",
"H. c #E7A37E",
"J. c #BD9489",
"K. c #C49385",
"L. c #D89682",
"P. c #D59B84",
"I. c #DB9B83",
"U. c #E28488",
"Y. c #E59C87",
"T. c #E88C94",
"R. c #F48C94",
"E. c #E69C97",
"W. c #DDA286",
"Q. c #DCA692",
"!. c #D7A894",
"~. c #E4A486",
"^. c #EBA484",
"/. c #EAAA87",
"(. c #E2A48B",
"). c #E3AB8D",
"_. c #EBAC8C",
"`. c #F5A685",
"'. c #F2B18F",
"]. c #E5AC93",
"[. c #ECAD93",
"{. c #E7AA98",
"}. c #F0A792",
"|. c #ECB194",
" X c #EBB79A",
".X c #EDB49D",
"XX c #F3B693",
"oX c #F3B59B",
"OX c #F3B99D",
"+X c #F8BA99",
"@X c #E5B4A2",
"#X c #EFB7A1",
"$X c #EEBCA4",
"%X c #EDBCAB",
"&X c #F3BCA4",
"*X c #F7BCA6",
"=X c #F7C29E",
"-X c #F4C4A6",
";X c #FAC2A5",
":X c #F5C3AA",
">X c #FBC4AB",
",X c #FCCCAD",
"<X c #EFC9B9",
"1X c #F4C6B1",
"2X c #F7C9B6",
"3X c #FCCBB4",
"4X c #FCCDB8",
"5X c #FFD0B7",
"6X c #FED1BC",
"7X c #FFCFC1",
"8X c #FCD5C3",
"9X c #FFDAC3",
"0X c #FFD8C9",
/* pixels */
"                                                                                                                                ",
"                                                                                                                                ",
"                                                          | | S                                                                 ",
"                                            @.X._ ' ' o.' ) ) ` ` (                                                             ",
"                                            a. .+.X.) ) ' ` ) ~ ` ) ) R                                                         ",
"                                          K R.j.#.o.X.o.' ' ` _ ..` ) ) _                                                       ",
"                                          f.R.j.+.' +.+.+.' ' ' +.[ ..^ ! O.                                                    ",
"                                        L p.p.{ / X.o.o.o.' ' +.+...^ ^ ! ! ~                                                   ",
"                                J S m v 7 6 6 7 8 M B A } o.+.+.o....._ ^ Q Q R                                                 ",
"                            H n z 6 5 5 2 3 3 3 4 4 4 8 9 n Y [ ' ..[ ^  .! Q ! t                                               ",
"                          S c 6 5 w 5 6 3 3 3 2 : : - - ; & - 8 Z } [ [ ! ! W W Y                                               ",
"                        m z 8 8 5 5 8 3 3 2 : * * * , , a + o # + = N A ] ! W P T                                               ",
"                      m z 6 8 8 e 8 8 5 5 4 * , y s l k.z.a p h -.j h s G U W P P v                                             ",
"                    F v 7 6 6 9 e e 8 8 w * u j 5.z.!.@XM.:.-.3.k.k.-.<.k G C I R D                                             ",
"                    b z 7 9 9 9 9 9 8 q > y j r.].$X:X%XB.P.K.5.2.q.x.%.;.7.F U E C                                             ",
"                    v 7 9 r r 9 7 9 e ; @ a e.(.OX%X1X%X%X6X@Xt.*.7.m.m.x.x.&.V E C                                             ",
"                    v x z 9 9 z 7 7 6 & $ f g.].%X1X3X2X8X9X-Xl.(.#X#XoXH.c.s.g n A                                             ",
"                    0 c c x x 9 x 7 3 & , $.g.Q.{.@X$X1X2X2X:XW.P.u.u.u.v.d.s.6.i m                                             ",
"                      v b b c c c z 6 = , :.i.u.t.3.q.V. X:XOXZ.6.*.t.k.r.w.d.s.f F p.                                          ",
"                          H M N N N M w < 1.y.u.z.y.1.2.B.,X=Xv.7.t.l j 8.b.G.b.%.=.C.,.                                        ",
"                                    1 d u :.l.i.4.k k M.D.;X=Xm.F.].z.u.Y._./.V.6.&.d.h.                                        ",
"                                        &.%.Z.m.D.A.K.].~.XXXXG.'.OX&X*X*X>X_.C.e.&.d.H.                                        ",
"                                        >.$.Z._.oX XOXOX~.+X+XH.'.>X4X6X5X>X_.n.0.d.`.                                          ",
"                                          0.M.].:X3X,X-X/.,X,X/.H.>X9X8X6X*X).g.s.n.`.                                          ",
"                                          L.M.].>X4X8X,X].1X4X^.H.oX8X0X7X*XY.e.w.G.`.      # $                                 ",
"                                            S.I.*X3X7X3XP.B.K.i.n. X4X6X3X#XC.e.e.I.      # # # #                               ",
"                                            P.P.{.*X3X>X[.L.V.].OX*X*X:X*X{.N.i.          # # # #                               ",
"                                              F.P. X*X&X&X[..X#X^.Y.E.&X*X(.N.0.        # # # # #                               ",
"                                                V.~.OX|.D.n.U.T.U.C.L.$X*X(.N.9.        # # # # #                               ",
"                                                  L.|.XXY.E.E.E.E.}.*X>X#XL.i.:.        # # # # #                               ",
"                                                    (.XX=X+X{.{. X*X-X$X].b.6.          # # # # #                               ",
"                                                    b.Q.OX;X3X9X9X5X-X|.S.9.&.          # # # #                                 ",
"                                                        W.-X4X<X<XJ.!.F.8.%.          # # # # #                                 ",
"                                                          Z.l % p $ 8.8.            # # # # #                                   ",
"                                                            # # # #               # # # # # #                                   ",
"                                                            $ # # #             # # # # # #                                     ",
"                                                          # # # # # #       # # # # # # #                                       ",
"                                                      # # # # # # # # # # # # # # # # #                                         ",
"                          # #                   # # # # # # # # # # # # # # # # # # #                                           ",
"                        # # # #               # # # # # # # # # # # # # # # # # # #                                             ",
"                        # # # #             # # # # # # # # # # # # # # # # # # #                                               ",
"                        # # # #           # # # # # $ # # # # # # $ # # # #                                                     ",
"                          # # # #       # # # # # # # # # # # # # # # # #                                                       ",
"                          # # # # #   # # # # #     # # # # # # # # # # #                                                       ",
"                            # # # # # # # # #       # # # # # # # # # # #                                                       ",
"                              # # # # # # #         # # # # # # # # # # #                                                       ",
"                                # # $ # # #         # # # # # # # # # # #                                                       ",
"                                  # # #             # # # # # # # # # # #                                                       ",
"                                                    # # # # # # # # # # #                                                       ",
"                                                    # # # # # # # # # # #                                                       ",
"                                                    # # # # # # # # # # #                                                       ",
"                                                    # # # # # # # # # # #                                                       ",
"                                                    # # # # O O # # # # #                                                       ",
"                                                    # # # # .   # # # # #                                                       ",
"                                                    # # # #     # # # # # .                                                     ",
"                                                    # # # #       # # # # o                                                     ",
"                                                  # # # # O       # # # # #                                                     ",
"                                                O # # # # O       # # # # #                                                     ",
"                                                # # # # # #       o # # # # o o                                                 ",
"                                            # # # # # # #           # # # # # # # X                                             ",
"                                          # # # # # # # #             # # # # # # #                                             ",
"                                          # # # # # # #               . # # # # # o                                             ",
"                                          # # # # # #                     O # O X                                               ",
"                                                                                                                                "
};
