/* XPM */
static char *result[] = {
/* columns rows colors chars-per-pixel */
"64 64 10 1 ",
"  c black",
". c #3E2723",
"X c #4E342E",
"o c #33691E",
"O c #5D4037",
"+ c #795548",
"@ c #558B2F",
"# c #689F38",
"$ c #8BC34A",
"% c #AED581",
/* pixels */
"                                                                ",
"                                                                ",
"                                                                ",
"                                                                ",
"                                                                ",
"                                                                ",
"                                                                ",
"                                                                ",
"                                                                ",
"                                                                ",
"                                                                ",
"                                                                ",
"                                                                ",
"                                                                ",
"                        %%                                      ",
"                       %%$@o                                    ",
"                       %$$#@o                                   ",
"                        %$$#@o                                  ",
"                %%%$$    $$#@@o                                 ",
"                %%$#oo    $$#@@o                                ",
"                 $#@@oo    $##@o                                ",
"                   #@@oo   %#@@o                                ",
"                    $#@oo %$$@o                                 ",
"                     %$@o %$#@o                                 ",
"                     %$@o%$$@@o                                 ",
"                     %#@o%$#@o                                  ",
"          %%%%%     %$#@%$$@@o                                  ",
"         %$#ooo@@@  %$#o%$#@o                                   ",
"         %$#oooooo@ %#@%$$#@o                                   ",
"          $@  @oooo@@@%$$$#@oo                                  ",
"                @ooo@#$$$$##@o                                  ",
"                 @@o#%%%%$$#@oo                                 ",
"                  #@%$$$$#%$#@oo                                ",
"        %%%%%%%   %#%$$$#@o@$@@oo                               ",
"        %$#@ooo@@#$#@%##@@oo@#@oo                               ",
"         #@ooooooo@@@o%@@ooooo@@o                               ",
"                @oo@@oo%@oooooo@oo                              ",
"                  #@@@oo%@oooooooo                              ",
"                   #@@o%$%@oooooooo                             ",
"                    @@o%$$%@ooooooo                             ",
"                    #@o%$$%#@ooooooo                            ",
"                     @o%$$$#@@oooooo                            ",
"                     #@o%$$$#@oooooo                            ",
"                      #@#%$##@@ooooo                            ",
"                       @@#%##@@@oooo                            ",
"                        @###@@@oooo                             ",
"                         @@#@oo@ooo                             ",
"                         ##$#@#@@oo                             ",
"                         ##$##@#@oo                             ",
"                         $#$####@@o                             ",
"                     .   $#$###@#@o                             ",
"                   .    %$%###@#@@o                             ",
"                        %$%####@#@o                             ",
"              .+        %$%###@#@@o                             ",
"                .       $$%####@@@o        .                    ",
"                     .  $%####@#@oo   .                         ",
"                   .   %$%###@#@@oX. .                          ",
"             .         $$%###@@@@XXX.   .                       ",
"                     ++O%###@#@@X.X...                          ",
"                    ++O..##@#@@++X.....                         ",
"               ++OO++O.O..@#@@++XX+X...                         ",
"            ++++O+O+O.O.....OOO..XX.X....                       ",
"              +OO.OO+++++....O+X............                    ",
"                  ++O+.OO ++OOO+X..........                     "
};
